<mxfile modified="2020-06-09T16:05:29.775Z" host="app.diagrams.net" agent="5.0 (Windows)" etag="8uHCBBKbDT_ka2OX5jYG" version="13.2.0" type="github" pages="3">
  <diagram id="WI9T0HZ2pTsCkuznbFz-" name="Page-1">
    <mxGraphModel dx="1422" dy="735" grid="1" gridSize="10" guides="1" tooltips="1" connect="1" arrows="1" fold="1" page="1" pageScale="1" pageWidth="827" pageHeight="1169" math="0" shadow="0">
      <root>
        <mxCell id="0" />
        <mxCell id="1" parent="0" />
        <mxCell id="mQJyYfz3JH52afu_WQ5I-129" value="" style="rounded=1;whiteSpace=wrap;html=1;" parent="1" vertex="1">
          <mxGeometry x="310" y="523" width="60" height="130" as="geometry" />
        </mxCell>
        <mxCell id="mQJyYfz3JH52afu_WQ5I-125" style="edgeStyle=none;rounded=0;orthogonalLoop=1;jettySize=auto;html=1;exitX=0;exitY=0.25;exitDx=0;exitDy=0;strokeWidth=2;" parent="1" source="mQJyYfz3JH52afu_WQ5I-124" target="mQJyYfz3JH52afu_WQ5I-99" edge="1">
          <mxGeometry relative="1" as="geometry" />
        </mxCell>
        <mxCell id="mQJyYfz3JH52afu_WQ5I-137" style="edgeStyle=none;rounded=0;orthogonalLoop=1;jettySize=auto;html=1;exitX=0.25;exitY=1;exitDx=0;exitDy=0;entryX=0.75;entryY=0;entryDx=0;entryDy=0;strokeWidth=2;" parent="1" source="mQJyYfz3JH52afu_WQ5I-124" target="mQJyYfz3JH52afu_WQ5I-129" edge="1">
          <mxGeometry relative="1" as="geometry" />
        </mxCell>
        <mxCell id="mQJyYfz3JH52afu_WQ5I-124" value="" style="rounded=1;whiteSpace=wrap;html=1;" parent="1" vertex="1">
          <mxGeometry x="380" y="215" width="220" height="85" as="geometry" />
        </mxCell>
        <mxCell id="mQJyYfz3JH52afu_WQ5I-99" value="" style="rounded=1;whiteSpace=wrap;html=1;" parent="1" vertex="1">
          <mxGeometry x="35" y="268" width="235" height="390" as="geometry" />
        </mxCell>
        <mxCell id="mQJyYfz3JH52afu_WQ5I-171" value="" style="edgeStyle=none;rounded=0;orthogonalLoop=1;jettySize=auto;html=1;endArrow=classicThin;endFill=1;strokeWidth=2;entryX=1;entryY=0.5;entryDx=0;entryDy=0;entryPerimeter=0;" parent="1" source="mQJyYfz3JH52afu_WQ5I-29" target="mQJyYfz3JH52afu_WQ5I-29" edge="1">
          <mxGeometry relative="1" as="geometry">
            <Array as="points" />
          </mxGeometry>
        </mxCell>
        <mxCell id="mQJyYfz3JH52afu_WQ5I-175" style="edgeStyle=none;rounded=0;orthogonalLoop=1;jettySize=auto;html=1;exitX=0.5;exitY=1;exitDx=0;exitDy=0;exitPerimeter=0;entryX=0.5;entryY=0;entryDx=0;entryDy=0;entryPerimeter=0;endArrow=classicThin;endFill=1;strokeWidth=2;" parent="1" source="mQJyYfz3JH52afu_WQ5I-29" target="mQJyYfz3JH52afu_WQ5I-156" edge="1">
          <mxGeometry relative="1" as="geometry" />
        </mxCell>
        <mxCell id="mQJyYfz3JH52afu_WQ5I-29" value="" style="shape=mxgraph.cisco.routers.router;html=1;pointerEvents=1;dashed=0;fillColor=#036897;strokeColor=#ffffff;strokeWidth=2;verticalLabelPosition=bottom;verticalAlign=top;align=center;outlineConnect=0;" parent="1" vertex="1">
          <mxGeometry x="440" y="138.5" width="40" height="23" as="geometry" />
        </mxCell>
        <mxCell id="mQJyYfz3JH52afu_WQ5I-170" value="" style="shape=mxgraph.cisco.routers.router;html=1;pointerEvents=1;dashed=0;fillColor=#036897;strokeColor=#ffffff;strokeWidth=2;verticalLabelPosition=bottom;verticalAlign=top;align=center;outlineConnect=0;" parent="1" vertex="1">
          <mxGeometry x="519" y="138.5" width="40" height="23" as="geometry" />
        </mxCell>
        <mxCell id="mQJyYfz3JH52afu_WQ5I-43" value="" style="points=[[0.015,0.015,0],[0.985,0.015,0],[0.985,0.985,0],[0.015,0.985,0],[0.25,0,0],[0.5,0,0],[0.75,0,0],[1,0.25,0],[1,0.5,0],[1,0.75,0],[0.75,1,0],[0.5,1,0],[0.25,1,0],[0,0.75,0],[0,0.5,0],[0,0.25,0]];verticalLabelPosition=bottom;html=1;verticalAlign=top;aspect=fixed;align=center;pointerEvents=1;shape=mxgraph.cisco19.rect;prIcon=l2_switch;fillColor=#FAFAFA;strokeColor=#005073;" parent="1" vertex="1">
          <mxGeometry x="410" y="220" width="50" height="50" as="geometry" />
        </mxCell>
        <mxCell id="mQJyYfz3JH52afu_WQ5I-44" value="" style="points=[[0.015,0.015,0],[0.985,0.015,0],[0.985,0.985,0],[0.015,0.985,0],[0.25,0,0],[0.5,0,0],[0.75,0,0],[1,0.25,0],[1,0.5,0],[1,0.75,0],[0.75,1,0],[0.5,1,0],[0.25,1,0],[0,0.75,0],[0,0.5,0],[0,0.25,0]];verticalLabelPosition=bottom;html=1;verticalAlign=top;aspect=fixed;align=center;pointerEvents=1;shape=mxgraph.cisco19.rect;prIcon=l2_switch;fillColor=#FAFAFA;strokeColor=#005073;" parent="1" vertex="1">
          <mxGeometry x="465" y="220" width="50" height="50" as="geometry" />
        </mxCell>
        <mxCell id="mQJyYfz3JH52afu_WQ5I-45" value="" style="points=[[0.015,0.015,0],[0.985,0.015,0],[0.985,0.985,0],[0.015,0.985,0],[0.25,0,0],[0.5,0,0],[0.75,0,0],[1,0.25,0],[1,0.5,0],[1,0.75,0],[0.75,1,0],[0.5,1,0],[0.25,1,0],[0,0.75,0],[0,0.5,0],[0,0.25,0]];verticalLabelPosition=bottom;html=1;verticalAlign=top;aspect=fixed;align=center;pointerEvents=1;shape=mxgraph.cisco19.rect;prIcon=l2_switch;fillColor=#FAFAFA;strokeColor=#005073;" parent="1" vertex="1">
          <mxGeometry x="525" y="220" width="50" height="50" as="geometry" />
        </mxCell>
        <mxCell id="mQJyYfz3JH52afu_WQ5I-49" value="L2 Switch" style="text;html=1;resizable=0;autosize=1;align=center;verticalAlign=middle;points=[];fillColor=none;strokeColor=none;rounded=0;" parent="1" vertex="1">
          <mxGeometry x="395" y="270" width="70" height="20" as="geometry" />
        </mxCell>
        <mxCell id="mQJyYfz3JH52afu_WQ5I-50" value="L2 Switch" style="text;html=1;resizable=0;autosize=1;align=center;verticalAlign=middle;points=[];fillColor=none;strokeColor=none;rounded=0;" parent="1" vertex="1">
          <mxGeometry x="455" y="270" width="70" height="20" as="geometry" />
        </mxCell>
        <mxCell id="mQJyYfz3JH52afu_WQ5I-52" value="L2 Switch" style="text;html=1;resizable=0;autosize=1;align=center;verticalAlign=middle;points=[];fillColor=none;strokeColor=none;rounded=0;" parent="1" vertex="1">
          <mxGeometry x="515" y="270" width="70" height="20" as="geometry" />
        </mxCell>
        <mxCell id="mQJyYfz3JH52afu_WQ5I-55" value="L3 Switch" style="text;html=1;resizable=0;autosize=1;align=center;verticalAlign=middle;points=[];fillColor=none;strokeColor=none;rounded=0;" parent="1" vertex="1">
          <mxGeometry x="335" y="184" width="70" height="20" as="geometry" />
        </mxCell>
        <mxCell id="mQJyYfz3JH52afu_WQ5I-235" value="" style="edgeStyle=none;rounded=0;orthogonalLoop=1;jettySize=auto;html=1;endArrow=classicThin;endFill=1;strokeWidth=2;fontSize=12;" parent="1" source="mQJyYfz3JH52afu_WQ5I-57" target="mQJyYfz3JH52afu_WQ5I-234" edge="1">
          <mxGeometry relative="1" as="geometry" />
        </mxCell>
        <mxCell id="mQJyYfz3JH52afu_WQ5I-57" value="VRRP" style="text;html=1;resizable=0;autosize=1;align=center;verticalAlign=middle;points=[];fillColor=none;strokeColor=none;rounded=0;" parent="1" vertex="1">
          <mxGeometry x="469" y="130" width="50" height="20" as="geometry" />
        </mxCell>
        <mxCell id="fe_fAyH0DzRX8LoHirCu-3" value="" style="edgeStyle=orthogonalEdgeStyle;rounded=0;orthogonalLoop=1;jettySize=auto;html=1;" edge="1" parent="1" source="mQJyYfz3JH52afu_WQ5I-234" target="fe_fAyH0DzRX8LoHirCu-2">
          <mxGeometry relative="1" as="geometry" />
        </mxCell>
        <mxCell id="mQJyYfz3JH52afu_WQ5I-234" value="L3VPN MLPS" style="text;html=1;resizable=0;autosize=1;align=center;verticalAlign=middle;points=[];fillColor=none;strokeColor=none;rounded=0;" parent="1" vertex="1">
          <mxGeometry x="449" y="60" width="90" height="20" as="geometry" />
        </mxCell>
        <mxCell id="fe_fAyH0DzRX8LoHirCu-2" value="ЦОД 2,3 link" style="text;html=1;resizable=0;autosize=1;align=center;verticalAlign=middle;points=[];fillColor=none;strokeColor=none;rounded=0;" vertex="1" parent="1">
          <mxGeometry x="454" y="10" width="80" height="20" as="geometry" />
        </mxCell>
        <mxCell id="mQJyYfz3JH52afu_WQ5I-60" value="" style="html=1;dashed=0;whitespace=wrap;fillColor=#2875E2;strokeColor=#ffffff;points=[[0.005,0.63,0],[0.1,0.2,0],[0.9,0.2,0],[0.5,0,0],[0.995,0.63,0],[0.72,0.99,0],[0.5,1,0],[0.28,0.99,0]];shape=mxgraph.kubernetes.icon;prIcon=ing" parent="1" vertex="1">
          <mxGeometry x="124.25999999999999" y="432" width="58.24" height="44" as="geometry" />
        </mxCell>
        <mxCell id="mQJyYfz3JH52afu_WQ5I-61" value="" style="html=1;dashed=0;whitespace=wrap;fillColor=#2875E2;strokeColor=#ffffff;points=[[0.005,0.63,0],[0.1,0.2,0],[0.9,0.2,0],[0.5,0,0],[0.995,0.63,0],[0.72,0.99,0],[0.5,1,0],[0.28,0.99,0]];shape=mxgraph.kubernetes.icon;prIcon=api" parent="1" vertex="1">
          <mxGeometry x="137.5" y="305" width="40" height="38" as="geometry" />
        </mxCell>
        <mxCell id="mQJyYfz3JH52afu_WQ5I-64" value="" style="html=1;dashed=0;whitespace=wrap;fillColor=#2875E2;strokeColor=#ffffff;points=[[0.005,0.63,0],[0.1,0.2,0],[0.9,0.2,0],[0.5,0,0],[0.995,0.63,0],[0.72,0.99,0],[0.5,1,0],[0.28,0.99,0]];shape=mxgraph.kubernetes.icon;prIcon=node" parent="1" vertex="1">
          <mxGeometry x="92.5" y="480" width="40" height="48" as="geometry" />
        </mxCell>
        <mxCell id="mQJyYfz3JH52afu_WQ5I-65" value="" style="html=1;dashed=0;whitespace=wrap;fillColor=#2875E2;strokeColor=#ffffff;points=[[0.005,0.63,0],[0.1,0.2,0],[0.9,0.2,0],[0.5,0,0],[0.995,0.63,0],[0.72,0.99,0],[0.5,1,0],[0.28,0.99,0]];shape=mxgraph.kubernetes.icon;prIcon=pod" parent="1" vertex="1">
          <mxGeometry x="117.5" y="540" width="50" height="38" as="geometry" />
        </mxCell>
        <mxCell id="mQJyYfz3JH52afu_WQ5I-74" value="" style="html=1;dashed=0;whitespace=wrap;fillColor=#2875E2;strokeColor=#ffffff;points=[[0.005,0.63,0],[0.1,0.2,0],[0.9,0.2,0],[0.5,0,0],[0.995,0.63,0],[0.72,0.99,0],[0.5,1,0],[0.28,0.99,0]];shape=mxgraph.kubernetes.icon;prIcon=etcd" parent="1" vertex="1">
          <mxGeometry x="82.5" y="305" width="40" height="38" as="geometry" />
        </mxCell>
        <mxCell id="mQJyYfz3JH52afu_WQ5I-75" value="" style="html=1;dashed=0;whitespace=wrap;fillColor=#2875E2;strokeColor=#ffffff;points=[[0.005,0.63,0],[0.1,0.2,0],[0.9,0.2,0],[0.5,0,0],[0.995,0.63,0],[0.72,0.99,0],[0.5,1,0],[0.28,0.99,0]];shape=mxgraph.kubernetes.icon;prIcon=pod" parent="1" vertex="1">
          <mxGeometry x="77.5" y="540" width="40" height="38" as="geometry" />
        </mxCell>
        <mxCell id="mQJyYfz3JH52afu_WQ5I-76" value="" style="html=1;dashed=0;whitespace=wrap;fillColor=#2875E2;strokeColor=#ffffff;points=[[0.005,0.63,0],[0.1,0.2,0],[0.9,0.2,0],[0.5,0,0],[0.995,0.63,0],[0.72,0.99,0],[0.5,1,0],[0.28,0.99,0]];shape=mxgraph.kubernetes.icon;prIcon=pod" parent="1" vertex="1">
          <mxGeometry x="157.5" y="540" width="50" height="38" as="geometry" />
        </mxCell>
        <mxCell id="mQJyYfz3JH52afu_WQ5I-77" value="" style="html=1;dashed=0;whitespace=wrap;fillColor=#2875E2;strokeColor=#ffffff;points=[[0.005,0.63,0],[0.1,0.2,0],[0.9,0.2,0],[0.5,0,0],[0.995,0.63,0],[0.72,0.99,0],[0.5,1,0],[0.28,0.99,0]];shape=mxgraph.kubernetes.icon;prIcon=pod" parent="1" vertex="1">
          <mxGeometry x="200" y="540" width="50" height="38" as="geometry" />
        </mxCell>
        <mxCell id="mQJyYfz3JH52afu_WQ5I-91" value="Экземпляр кластера Kubernetes" style="text;html=1;resizable=0;autosize=1;align=center;verticalAlign=middle;points=[];fillColor=none;strokeColor=none;rounded=0;fontStyle=1" parent="1" vertex="1">
          <mxGeometry x="7.5" y="220" width="210" height="20" as="geometry" />
        </mxCell>
        <mxCell id="mQJyYfz3JH52afu_WQ5I-94" value="" style="html=1;dashed=0;whitespace=wrap;fillColor=#2875E2;strokeColor=#ffffff;points=[[0.005,0.63,0],[0.1,0.2,0],[0.9,0.2,0],[0.5,0,0],[0.995,0.63,0],[0.72,0.99,0],[0.5,1,0],[0.28,0.99,0]];shape=mxgraph.kubernetes.icon;prIcon=node" parent="1" vertex="1">
          <mxGeometry x="137.5" y="480" width="40" height="48" as="geometry" />
        </mxCell>
        <mxCell id="mQJyYfz3JH52afu_WQ5I-95" value="" style="html=1;dashed=0;whitespace=wrap;fillColor=#2875E2;strokeColor=#ffffff;points=[[0.005,0.63,0],[0.1,0.2,0],[0.9,0.2,0],[0.5,0,0],[0.995,0.63,0],[0.72,0.99,0],[0.5,1,0],[0.28,0.99,0]];shape=mxgraph.kubernetes.icon;prIcon=node" parent="1" vertex="1">
          <mxGeometry x="182.5" y="480" width="40" height="48" as="geometry" />
        </mxCell>
        <mxCell id="mQJyYfz3JH52afu_WQ5I-96" value="" style="html=1;dashed=0;whitespace=wrap;fillColor=#2875E2;strokeColor=#ffffff;points=[[0.005,0.63,0],[0.1,0.2,0],[0.9,0.2,0],[0.5,0,0],[0.995,0.63,0],[0.72,0.99,0],[0.5,1,0],[0.28,0.99,0]];shape=mxgraph.kubernetes.icon;prIcon=master" parent="1" vertex="1">
          <mxGeometry x="127.5" y="360" width="55" height="46" as="geometry" />
        </mxCell>
        <mxCell id="mQJyYfz3JH52afu_WQ5I-133" style="edgeStyle=none;rounded=0;orthogonalLoop=1;jettySize=auto;html=1;exitX=0.995;exitY=0.63;exitDx=0;exitDy=0;exitPerimeter=0;entryX=0;entryY=0.75;entryDx=0;entryDy=0;strokeWidth=2;" parent="1" source="mQJyYfz3JH52afu_WQ5I-115" target="mQJyYfz3JH52afu_WQ5I-129" edge="1">
          <mxGeometry relative="1" as="geometry" />
        </mxCell>
        <mxCell id="mQJyYfz3JH52afu_WQ5I-115" value="" style="html=1;dashed=0;whitespace=wrap;fillColor=#2875E2;strokeColor=#ffffff;points=[[0.005,0.63,0],[0.1,0.2,0],[0.9,0.2,0],[0.5,0,0],[0.995,0.63,0],[0.72,0.99,0],[0.5,1,0],[0.28,0.99,0]];shape=mxgraph.kubernetes.icon;prIcon=vol" parent="1" vertex="1">
          <mxGeometry x="135" y="600" width="42.5" height="38" as="geometry" />
        </mxCell>
        <mxCell id="mQJyYfz3JH52afu_WQ5I-116" value="" style="shape=mxgraph.cisco.storage.relational_database;html=1;pointerEvents=1;dashed=0;fillColor=#036897;strokeColor=#ffffff;strokeWidth=2;verticalLabelPosition=bottom;verticalAlign=top;align=center;outlineConnect=0;" parent="1" vertex="1">
          <mxGeometry x="320" y="539" width="40" height="27" as="geometry" />
        </mxCell>
        <mxCell id="mQJyYfz3JH52afu_WQ5I-119" value="APP1" style="text;html=1;resizable=0;autosize=1;align=center;verticalAlign=middle;points=[];fillColor=none;strokeColor=none;rounded=0;" parent="1" vertex="1">
          <mxGeometry x="72.5" y="578" width="50" height="20" as="geometry" />
        </mxCell>
        <mxCell id="mQJyYfz3JH52afu_WQ5I-121" value="PG1" style="text;html=1;resizable=0;autosize=1;align=center;verticalAlign=middle;points=[];fillColor=none;strokeColor=none;rounded=0;" parent="1" vertex="1">
          <mxGeometry x="122.5" y="578" width="40" height="20" as="geometry" />
        </mxCell>
        <mxCell id="mQJyYfz3JH52afu_WQ5I-122" value="Red1" style="text;html=1;resizable=0;autosize=1;align=center;verticalAlign=middle;points=[];fillColor=none;strokeColor=none;rounded=0;" parent="1" vertex="1">
          <mxGeometry x="157.5" y="578" width="50" height="20" as="geometry" />
        </mxCell>
        <mxCell id="mQJyYfz3JH52afu_WQ5I-126" value="" style="shape=mxgraph.cisco.storage.relational_database;html=1;pointerEvents=1;dashed=0;fillColor=#036897;strokeColor=#ffffff;strokeWidth=2;verticalLabelPosition=bottom;verticalAlign=top;align=center;outlineConnect=0;" parent="1" vertex="1">
          <mxGeometry x="320" y="539" width="40" height="27" as="geometry" />
        </mxCell>
        <mxCell id="mQJyYfz3JH52afu_WQ5I-127" value="" style="shape=mxgraph.cisco.storage.relational_database;html=1;pointerEvents=1;dashed=0;fillColor=#036897;strokeColor=#ffffff;strokeWidth=2;verticalLabelPosition=bottom;verticalAlign=top;align=center;outlineConnect=0;" parent="1" vertex="1">
          <mxGeometry x="320" y="574.5" width="40" height="27" as="geometry" />
        </mxCell>
        <mxCell id="mQJyYfz3JH52afu_WQ5I-128" value="" style="shape=mxgraph.cisco.storage.relational_database;html=1;pointerEvents=1;dashed=0;fillColor=#036897;strokeColor=#ffffff;strokeWidth=2;verticalLabelPosition=bottom;verticalAlign=top;align=center;outlineConnect=0;" parent="1" vertex="1">
          <mxGeometry x="320" y="606" width="40" height="27" as="geometry" />
        </mxCell>
        <mxCell id="mQJyYfz3JH52afu_WQ5I-130" value="Ceph volume&amp;nbsp; кластер" style="text;html=1;resizable=0;autosize=1;align=center;verticalAlign=middle;points=[];fillColor=none;strokeColor=none;rounded=0;" parent="1" vertex="1">
          <mxGeometry x="270" y="653" width="140" height="20" as="geometry" />
        </mxCell>
        <mxCell id="mQJyYfz3JH52afu_WQ5I-131" style="edgeStyle=none;rounded=0;orthogonalLoop=1;jettySize=auto;html=1;exitX=0.5;exitY=1;exitDx=0;exitDy=0;exitPerimeter=0;strokeWidth=2;" parent="1" source="mQJyYfz3JH52afu_WQ5I-126" target="mQJyYfz3JH52afu_WQ5I-126" edge="1">
          <mxGeometry relative="1" as="geometry" />
        </mxCell>
        <mxCell id="mQJyYfz3JH52afu_WQ5I-134" value="Persistant volume" style="text;html=1;resizable=0;autosize=1;align=center;verticalAlign=middle;points=[];fillColor=none;strokeColor=none;rounded=0;" parent="1" vertex="1">
          <mxGeometry x="102.5" y="638" width="110" height="20" as="geometry" />
        </mxCell>
        <mxCell id="mQJyYfz3JH52afu_WQ5I-135" style="edgeStyle=none;rounded=0;orthogonalLoop=1;jettySize=auto;html=1;exitX=0.75;exitY=0;exitDx=0;exitDy=0;strokeWidth=2;" parent="1" source="mQJyYfz3JH52afu_WQ5I-129" target="mQJyYfz3JH52afu_WQ5I-129" edge="1">
          <mxGeometry relative="1" as="geometry" />
        </mxCell>
        <mxCell id="mQJyYfz3JH52afu_WQ5I-138" value="API Server" style="text;html=1;resizable=0;autosize=1;align=center;verticalAlign=middle;points=[];fillColor=none;strokeColor=none;rounded=0;" parent="1" vertex="1">
          <mxGeometry x="172.5" y="314" width="70" height="20" as="geometry" />
        </mxCell>
        <mxCell id="mQJyYfz3JH52afu_WQ5I-139" value="Master" style="text;html=1;resizable=0;autosize=1;align=center;verticalAlign=middle;points=[];fillColor=none;strokeColor=none;rounded=0;" parent="1" vertex="1">
          <mxGeometry x="187.5" y="373" width="50" height="20" as="geometry" />
        </mxCell>
        <mxCell id="mQJyYfz3JH52afu_WQ5I-140" value="Worker nodes" style="text;html=1;resizable=0;autosize=1;align=center;verticalAlign=middle;points=[];fillColor=none;strokeColor=none;rounded=0;" parent="1" vertex="1">
          <mxGeometry x="110" y="523" width="90" height="20" as="geometry" />
        </mxCell>
        <mxCell id="mQJyYfz3JH52afu_WQ5I-143" value="Ingress nginx для APP1" style="text;html=1;resizable=0;autosize=1;align=center;verticalAlign=middle;points=[];fillColor=none;strokeColor=none;rounded=0;" parent="1" vertex="1">
          <mxGeometry x="77.5" y="415" width="150" height="20" as="geometry" />
        </mxCell>
        <mxCell id="mQJyYfz3JH52afu_WQ5I-144" value="Pods" style="text;html=1;resizable=0;autosize=1;align=center;verticalAlign=middle;points=[];fillColor=none;strokeColor=none;rounded=0;" parent="1" vertex="1">
          <mxGeometry x="37.5" y="549" width="40" height="20" as="geometry" />
        </mxCell>
        <mxCell id="mQJyYfz3JH52afu_WQ5I-147" value="ETCD 1" style="text;html=1;resizable=0;autosize=1;align=center;verticalAlign=middle;points=[];fillColor=none;strokeColor=none;rounded=0;" parent="1" vertex="1">
          <mxGeometry x="72.5" y="343" width="60" height="20" as="geometry" />
        </mxCell>
        <mxCell id="mQJyYfz3JH52afu_WQ5I-150" value="" style="verticalLabelPosition=bottom;html=1;verticalAlign=top;align=center;strokeColor=none;fillColor=#00BEF2;shape=mxgraph.azure.virtual_machine;" parent="1" vertex="1">
          <mxGeometry x="480" y="363" width="50" height="40" as="geometry" />
        </mxCell>
        <mxCell id="mQJyYfz3JH52afu_WQ5I-153" value="" style="edgeStyle=none;rounded=0;orthogonalLoop=1;jettySize=auto;html=1;strokeWidth=2;" parent="1" source="mQJyYfz3JH52afu_WQ5I-151" target="mQJyYfz3JH52afu_WQ5I-152" edge="1">
          <mxGeometry relative="1" as="geometry" />
        </mxCell>
        <mxCell id="mQJyYfz3JH52afu_WQ5I-151" value="VM1" style="text;html=1;resizable=0;autosize=1;align=center;verticalAlign=middle;points=[];fillColor=none;strokeColor=none;rounded=0;" parent="1" vertex="1">
          <mxGeometry x="535" y="365" width="40" height="20" as="geometry" />
        </mxCell>
        <mxCell id="mQJyYfz3JH52afu_WQ5I-152" value="&lt;div style=&quot;font-size: 12px;&quot;&gt;Ceph node1&lt;/div&gt;&lt;div style=&quot;font-size: 12px;&quot;&gt;&lt;br style=&quot;font-size: 12px;&quot;&gt;&lt;/div&gt;" style="text;html=1;resizable=0;autosize=1;align=center;verticalAlign=middle;points=[];fillColor=none;strokeColor=none;rounded=0;fontSize=12;fontStyle=1" parent="1" vertex="1">
          <mxGeometry x="640" y="360" width="80" height="30" as="geometry" />
        </mxCell>
        <mxCell id="mQJyYfz3JH52afu_WQ5I-173" value="" style="edgeStyle=none;rounded=0;orthogonalLoop=1;jettySize=auto;html=1;endArrow=classicThin;endFill=1;strokeWidth=2;entryX=0.358;entryY=-0.014;entryDx=0;entryDy=0;entryPerimeter=0;" parent="1" source="mQJyYfz3JH52afu_WQ5I-156" target="mQJyYfz3JH52afu_WQ5I-124" edge="1">
          <mxGeometry relative="1" as="geometry" />
        </mxCell>
        <mxCell id="mQJyYfz3JH52afu_WQ5I-176" style="edgeStyle=none;rounded=0;orthogonalLoop=1;jettySize=auto;html=1;endArrow=classicThin;endFill=1;strokeWidth=2;" parent="1" source="mQJyYfz3JH52afu_WQ5I-156" target="mQJyYfz3JH52afu_WQ5I-170" edge="1">
          <mxGeometry relative="1" as="geometry" />
        </mxCell>
        <mxCell id="mQJyYfz3JH52afu_WQ5I-251" value="" style="edgeStyle=none;rounded=0;orthogonalLoop=1;jettySize=auto;html=1;endArrow=classicThin;endFill=1;strokeWidth=2;fontSize=12;" parent="1" source="mQJyYfz3JH52afu_WQ5I-156" target="mQJyYfz3JH52afu_WQ5I-157" edge="1">
          <mxGeometry relative="1" as="geometry" />
        </mxCell>
        <mxCell id="mQJyYfz3JH52afu_WQ5I-156" value="" style="points=[[0.015,0.015,0],[0.985,0.015,0],[0.985,0.985,0],[0.015,0.985,0],[0.25,0,0],[0.5,0,0],[0.75,0,0],[1,0.25,0],[1,0.5,0],[1,0.75,0],[0.75,1,0],[0.5,1,0],[0.25,1,0],[0,0.75,0],[0,0.5,0],[0,0.25,0]];verticalLabelPosition=bottom;html=1;verticalAlign=top;aspect=fixed;align=center;pointerEvents=1;shape=mxgraph.cisco19.rect;prIcon=l3_switch;fillColor=#FAFAFA;strokeColor=#005073;" parent="1" vertex="1">
          <mxGeometry x="440" y="168" width="35" height="35" as="geometry" />
        </mxCell>
        <mxCell id="mQJyYfz3JH52afu_WQ5I-174" style="edgeStyle=none;rounded=0;orthogonalLoop=1;jettySize=auto;html=1;exitX=0.5;exitY=1;exitDx=0;exitDy=0;exitPerimeter=0;entryX=0.711;entryY=0.014;entryDx=0;entryDy=0;entryPerimeter=0;endArrow=classicThin;endFill=1;strokeWidth=2;" parent="1" source="mQJyYfz3JH52afu_WQ5I-157" target="mQJyYfz3JH52afu_WQ5I-124" edge="1">
          <mxGeometry relative="1" as="geometry" />
        </mxCell>
        <mxCell id="mQJyYfz3JH52afu_WQ5I-177" style="edgeStyle=none;rounded=0;orthogonalLoop=1;jettySize=auto;html=1;endArrow=classicThin;endFill=1;strokeWidth=2;" parent="1" source="mQJyYfz3JH52afu_WQ5I-157" target="mQJyYfz3JH52afu_WQ5I-29" edge="1">
          <mxGeometry relative="1" as="geometry" />
        </mxCell>
        <mxCell id="mQJyYfz3JH52afu_WQ5I-254" style="edgeStyle=none;rounded=0;orthogonalLoop=1;jettySize=auto;html=1;exitX=0;exitY=0.5;exitDx=0;exitDy=0;exitPerimeter=0;endArrow=classicThin;endFill=1;strokeWidth=2;fontSize=12;" parent="1" source="mQJyYfz3JH52afu_WQ5I-157" edge="1">
          <mxGeometry relative="1" as="geometry">
            <mxPoint x="480" y="184" as="targetPoint" />
          </mxGeometry>
        </mxCell>
        <mxCell id="mQJyYfz3JH52afu_WQ5I-157" value="" style="points=[[0.015,0.015,0],[0.985,0.015,0],[0.985,0.985,0],[0.015,0.985,0],[0.25,0,0],[0.5,0,0],[0.75,0,0],[1,0.25,0],[1,0.5,0],[1,0.75,0],[0.75,1,0],[0.5,1,0],[0.25,1,0],[0,0.75,0],[0,0.5,0],[0,0.25,0]];verticalLabelPosition=bottom;html=1;verticalAlign=top;aspect=fixed;align=center;pointerEvents=1;shape=mxgraph.cisco19.rect;prIcon=l3_switch;fillColor=#FAFAFA;strokeColor=#005073;" parent="1" vertex="1">
          <mxGeometry x="519" y="167" width="36" height="36" as="geometry" />
        </mxCell>
        <mxCell id="mQJyYfz3JH52afu_WQ5I-198" value="" style="verticalLabelPosition=bottom;html=1;verticalAlign=top;align=center;strokeColor=none;fillColor=#00BEF2;shape=mxgraph.azure.virtual_machine;" parent="1" vertex="1">
          <mxGeometry x="480" y="407.5" width="50" height="40" as="geometry" />
        </mxCell>
        <mxCell id="mQJyYfz3JH52afu_WQ5I-199" value="" style="edgeStyle=none;rounded=0;orthogonalLoop=1;jettySize=auto;html=1;strokeWidth=2;" parent="1" source="mQJyYfz3JH52afu_WQ5I-200" edge="1">
          <mxGeometry relative="1" as="geometry">
            <mxPoint x="650" y="426.5" as="targetPoint" />
          </mxGeometry>
        </mxCell>
        <mxCell id="mQJyYfz3JH52afu_WQ5I-200" value="VM2" style="text;html=1;resizable=0;autosize=1;align=center;verticalAlign=middle;points=[];fillColor=none;strokeColor=none;rounded=0;" parent="1" vertex="1">
          <mxGeometry x="535" y="416.5" width="40" height="20" as="geometry" />
        </mxCell>
        <mxCell id="mQJyYfz3JH52afu_WQ5I-201" value="ETCD1" style="text;html=1;resizable=0;autosize=1;align=center;verticalAlign=middle;points=[];fillColor=none;strokeColor=none;rounded=0;fontSize=12;fontStyle=1" parent="1" vertex="1">
          <mxGeometry x="665" y="417.5" width="50" height="20" as="geometry" />
        </mxCell>
        <mxCell id="mQJyYfz3JH52afu_WQ5I-202" value="" style="verticalLabelPosition=bottom;html=1;verticalAlign=top;align=center;strokeColor=none;fillColor=#00BEF2;shape=mxgraph.azure.virtual_machine;" parent="1" vertex="1">
          <mxGeometry x="480" y="454.5" width="50" height="40" as="geometry" />
        </mxCell>
        <mxCell id="mQJyYfz3JH52afu_WQ5I-203" value="" style="edgeStyle=none;rounded=0;orthogonalLoop=1;jettySize=auto;html=1;strokeWidth=2;" parent="1" source="mQJyYfz3JH52afu_WQ5I-204" edge="1">
          <mxGeometry relative="1" as="geometry">
            <mxPoint x="650" y="466.5" as="targetPoint" />
          </mxGeometry>
        </mxCell>
        <mxCell id="mQJyYfz3JH52afu_WQ5I-204" value="VM3" style="text;html=1;resizable=0;autosize=1;align=center;verticalAlign=middle;points=[];fillColor=none;strokeColor=none;rounded=0;" parent="1" vertex="1">
          <mxGeometry x="535" y="456.5" width="40" height="20" as="geometry" />
        </mxCell>
        <mxCell id="mQJyYfz3JH52afu_WQ5I-205" value="ETCD2" style="text;html=1;resizable=0;autosize=1;align=center;verticalAlign=middle;points=[];fillColor=none;strokeColor=none;rounded=0;fontSize=12;fontStyle=1" parent="1" vertex="1">
          <mxGeometry x="665" y="457.5" width="50" height="20" as="geometry" />
        </mxCell>
        <mxCell id="mQJyYfz3JH52afu_WQ5I-220" value="" style="verticalLabelPosition=bottom;html=1;verticalAlign=top;align=center;strokeColor=none;fillColor=#00BEF2;shape=mxgraph.azure.virtual_machine;" parent="1" vertex="1">
          <mxGeometry x="480" y="499.5" width="50" height="40" as="geometry" />
        </mxCell>
        <mxCell id="mQJyYfz3JH52afu_WQ5I-221" value="" style="edgeStyle=none;rounded=0;orthogonalLoop=1;jettySize=auto;html=1;strokeWidth=2;" parent="1" source="mQJyYfz3JH52afu_WQ5I-222" target="mQJyYfz3JH52afu_WQ5I-223" edge="1">
          <mxGeometry relative="1" as="geometry" />
        </mxCell>
        <mxCell id="mQJyYfz3JH52afu_WQ5I-222" value="VM4" style="text;html=1;resizable=0;autosize=1;align=center;verticalAlign=middle;points=[];fillColor=none;strokeColor=none;rounded=0;" parent="1" vertex="1">
          <mxGeometry x="535" y="501.5" width="40" height="20" as="geometry" />
        </mxCell>
        <mxCell id="mQJyYfz3JH52afu_WQ5I-223" value="&lt;div&gt;Master node1&lt;/div&gt;&lt;div&gt;&lt;br&gt;&lt;/div&gt;" style="text;html=1;resizable=0;autosize=1;align=center;verticalAlign=middle;points=[];fillColor=none;strokeColor=none;rounded=0;fontSize=12;fontStyle=1" parent="1" vertex="1">
          <mxGeometry x="630" y="496.5" width="90" height="30" as="geometry" />
        </mxCell>
        <mxCell id="mQJyYfz3JH52afu_WQ5I-224" value="" style="verticalLabelPosition=bottom;html=1;verticalAlign=top;align=center;strokeColor=none;fillColor=#00BEF2;shape=mxgraph.azure.virtual_machine;" parent="1" vertex="1">
          <mxGeometry x="480" y="544.5" width="50" height="40" as="geometry" />
        </mxCell>
        <mxCell id="mQJyYfz3JH52afu_WQ5I-225" value="" style="edgeStyle=none;rounded=0;orthogonalLoop=1;jettySize=auto;html=1;strokeWidth=2;" parent="1" source="mQJyYfz3JH52afu_WQ5I-226" target="mQJyYfz3JH52afu_WQ5I-227" edge="1">
          <mxGeometry relative="1" as="geometry" />
        </mxCell>
        <mxCell id="mQJyYfz3JH52afu_WQ5I-226" value="VM5" style="text;html=1;resizable=0;autosize=1;align=center;verticalAlign=middle;points=[];fillColor=none;strokeColor=none;rounded=0;" parent="1" vertex="1">
          <mxGeometry x="535" y="541.5" width="40" height="20" as="geometry" />
        </mxCell>
        <mxCell id="mQJyYfz3JH52afu_WQ5I-227" value="&lt;div&gt;Master node2&lt;/div&gt;&lt;div&gt;&lt;br&gt;&lt;/div&gt;" style="text;html=1;resizable=0;autosize=1;align=center;verticalAlign=middle;points=[];fillColor=none;strokeColor=none;rounded=0;fontSize=12;fontStyle=1" parent="1" vertex="1">
          <mxGeometry x="630" y="536.5" width="90" height="30" as="geometry" />
        </mxCell>
        <mxCell id="mQJyYfz3JH52afu_WQ5I-236" value="" style="verticalLabelPosition=bottom;html=1;verticalAlign=top;align=center;strokeColor=none;fillColor=#00BEF2;shape=mxgraph.azure.virtual_machine;" parent="1" vertex="1">
          <mxGeometry x="480" y="590.5" width="50" height="40" as="geometry" />
        </mxCell>
        <mxCell id="mQJyYfz3JH52afu_WQ5I-237" value="" style="edgeStyle=none;rounded=0;orthogonalLoop=1;jettySize=auto;html=1;strokeWidth=2;" parent="1" source="mQJyYfz3JH52afu_WQ5I-238" target="mQJyYfz3JH52afu_WQ5I-239" edge="1">
          <mxGeometry relative="1" as="geometry" />
        </mxCell>
        <mxCell id="mQJyYfz3JH52afu_WQ5I-238" value="VM6" style="text;html=1;resizable=0;autosize=1;align=center;verticalAlign=middle;points=[];fillColor=none;strokeColor=none;rounded=0;" parent="1" vertex="1">
          <mxGeometry x="535" y="590.5" width="40" height="20" as="geometry" />
        </mxCell>
        <mxCell id="mQJyYfz3JH52afu_WQ5I-239" value="Worker Node1" style="text;html=1;resizable=0;autosize=1;align=center;verticalAlign=middle;points=[];fillColor=none;strokeColor=none;rounded=0;fontSize=12;fontStyle=1" parent="1" vertex="1">
          <mxGeometry x="625" y="590.5" width="100" height="20" as="geometry" />
        </mxCell>
        <mxCell id="mQJyYfz3JH52afu_WQ5I-250" value="&lt;div&gt;Ing nginx&lt;/div&gt;&lt;div&gt;&lt;br&gt;&lt;/div&gt;" style="text;html=1;resizable=0;autosize=1;align=center;verticalAlign=middle;points=[];fillColor=none;strokeColor=none;rounded=0;" parent="1" vertex="1">
          <mxGeometry x="195" y="575" width="60" height="30" as="geometry" />
        </mxCell>
        <mxCell id="S8KQ21YanpJEtmCYBAqo-1" value="&lt;b&gt;&lt;font style=&quot;font-size: 23px&quot;&gt;ЦОД 1&lt;/font&gt;&lt;/b&gt;" style="text;html=1;resizable=0;autosize=1;align=center;verticalAlign=middle;points=[];fillColor=none;strokeColor=none;rounded=0;" vertex="1" parent="1">
          <mxGeometry x="42.5" y="40" width="90" height="20" as="geometry" />
        </mxCell>
      </root>
    </mxGraphModel>
  </diagram>
  <diagram id="WRc8EqKtttgvoJZB9Nq3" name="Page-2">
    <mxGraphModel dx="1422" dy="735" grid="1" gridSize="10" guides="1" tooltips="1" connect="1" arrows="1" fold="1" page="1" pageScale="1" pageWidth="827" pageHeight="1169" math="0" shadow="0">
      <root>
        <mxCell id="D9daAo4ayCbJI-qHOZgS-0" />
        <mxCell id="D9daAo4ayCbJI-qHOZgS-1" parent="D9daAo4ayCbJI-qHOZgS-0" />
        <mxCell id="D699powLLGigEukS-yTL-0" value="" style="rounded=1;whiteSpace=wrap;html=1;" vertex="1" parent="D9daAo4ayCbJI-qHOZgS-1">
          <mxGeometry x="320" y="591" width="60" height="57" as="geometry" />
        </mxCell>
        <mxCell id="D699powLLGigEukS-yTL-1" style="edgeStyle=none;rounded=0;orthogonalLoop=1;jettySize=auto;html=1;exitX=0;exitY=0.25;exitDx=0;exitDy=0;strokeWidth=2;" edge="1" source="D699powLLGigEukS-yTL-3" target="D699powLLGigEukS-yTL-4" parent="D9daAo4ayCbJI-qHOZgS-1">
          <mxGeometry relative="1" as="geometry" />
        </mxCell>
        <mxCell id="D699powLLGigEukS-yTL-2" style="edgeStyle=none;rounded=0;orthogonalLoop=1;jettySize=auto;html=1;exitX=0.25;exitY=1;exitDx=0;exitDy=0;entryX=0.75;entryY=0;entryDx=0;entryDy=0;strokeWidth=2;" edge="1" source="D699powLLGigEukS-yTL-3" target="D699powLLGigEukS-yTL-0" parent="D9daAo4ayCbJI-qHOZgS-1">
          <mxGeometry relative="1" as="geometry" />
        </mxCell>
        <mxCell id="D699powLLGigEukS-yTL-3" value="" style="rounded=1;whiteSpace=wrap;html=1;" vertex="1" parent="D9daAo4ayCbJI-qHOZgS-1">
          <mxGeometry x="390" y="225" width="220" height="85" as="geometry" />
        </mxCell>
        <mxCell id="D699powLLGigEukS-yTL-4" value="" style="rounded=1;whiteSpace=wrap;html=1;" vertex="1" parent="D9daAo4ayCbJI-qHOZgS-1">
          <mxGeometry x="45" y="278" width="235" height="390" as="geometry" />
        </mxCell>
        <mxCell id="D699powLLGigEukS-yTL-5" value="" style="edgeStyle=none;rounded=0;orthogonalLoop=1;jettySize=auto;html=1;endArrow=classicThin;endFill=1;strokeWidth=2;entryX=1;entryY=0.5;entryDx=0;entryDy=0;entryPerimeter=0;" edge="1" source="D699powLLGigEukS-yTL-7" target="D699powLLGigEukS-yTL-7" parent="D9daAo4ayCbJI-qHOZgS-1">
          <mxGeometry relative="1" as="geometry">
            <Array as="points" />
          </mxGeometry>
        </mxCell>
        <mxCell id="D699powLLGigEukS-yTL-6" style="edgeStyle=none;rounded=0;orthogonalLoop=1;jettySize=auto;html=1;exitX=0.5;exitY=1;exitDx=0;exitDy=0;exitPerimeter=0;entryX=0.5;entryY=0;entryDx=0;entryDy=0;entryPerimeter=0;endArrow=classicThin;endFill=1;strokeWidth=2;" edge="1" source="D699powLLGigEukS-yTL-7" target="D699powLLGigEukS-yTL-57" parent="D9daAo4ayCbJI-qHOZgS-1">
          <mxGeometry relative="1" as="geometry" />
        </mxCell>
        <mxCell id="D699powLLGigEukS-yTL-7" value="" style="shape=mxgraph.cisco.routers.router;html=1;pointerEvents=1;dashed=0;fillColor=#036897;strokeColor=#ffffff;strokeWidth=2;verticalLabelPosition=bottom;verticalAlign=top;align=center;outlineConnect=0;" vertex="1" parent="D9daAo4ayCbJI-qHOZgS-1">
          <mxGeometry x="450" y="148.5" width="40" height="23" as="geometry" />
        </mxCell>
        <mxCell id="D699powLLGigEukS-yTL-8" value="" style="shape=mxgraph.cisco.routers.router;html=1;pointerEvents=1;dashed=0;fillColor=#036897;strokeColor=#ffffff;strokeWidth=2;verticalLabelPosition=bottom;verticalAlign=top;align=center;outlineConnect=0;" vertex="1" parent="D9daAo4ayCbJI-qHOZgS-1">
          <mxGeometry x="529" y="148.5" width="40" height="23" as="geometry" />
        </mxCell>
        <mxCell id="D699powLLGigEukS-yTL-9" value="" style="points=[[0.015,0.015,0],[0.985,0.015,0],[0.985,0.985,0],[0.015,0.985,0],[0.25,0,0],[0.5,0,0],[0.75,0,0],[1,0.25,0],[1,0.5,0],[1,0.75,0],[0.75,1,0],[0.5,1,0],[0.25,1,0],[0,0.75,0],[0,0.5,0],[0,0.25,0]];verticalLabelPosition=bottom;html=1;verticalAlign=top;aspect=fixed;align=center;pointerEvents=1;shape=mxgraph.cisco19.rect;prIcon=l2_switch;fillColor=#FAFAFA;strokeColor=#005073;" vertex="1" parent="D9daAo4ayCbJI-qHOZgS-1">
          <mxGeometry x="420" y="230" width="50" height="50" as="geometry" />
        </mxCell>
        <mxCell id="D699powLLGigEukS-yTL-10" value="" style="points=[[0.015,0.015,0],[0.985,0.015,0],[0.985,0.985,0],[0.015,0.985,0],[0.25,0,0],[0.5,0,0],[0.75,0,0],[1,0.25,0],[1,0.5,0],[1,0.75,0],[0.75,1,0],[0.5,1,0],[0.25,1,0],[0,0.75,0],[0,0.5,0],[0,0.25,0]];verticalLabelPosition=bottom;html=1;verticalAlign=top;aspect=fixed;align=center;pointerEvents=1;shape=mxgraph.cisco19.rect;prIcon=l2_switch;fillColor=#FAFAFA;strokeColor=#005073;" vertex="1" parent="D9daAo4ayCbJI-qHOZgS-1">
          <mxGeometry x="475" y="230" width="50" height="50" as="geometry" />
        </mxCell>
        <mxCell id="D699powLLGigEukS-yTL-11" value="" style="points=[[0.015,0.015,0],[0.985,0.015,0],[0.985,0.985,0],[0.015,0.985,0],[0.25,0,0],[0.5,0,0],[0.75,0,0],[1,0.25,0],[1,0.5,0],[1,0.75,0],[0.75,1,0],[0.5,1,0],[0.25,1,0],[0,0.75,0],[0,0.5,0],[0,0.25,0]];verticalLabelPosition=bottom;html=1;verticalAlign=top;aspect=fixed;align=center;pointerEvents=1;shape=mxgraph.cisco19.rect;prIcon=l2_switch;fillColor=#FAFAFA;strokeColor=#005073;" vertex="1" parent="D9daAo4ayCbJI-qHOZgS-1">
          <mxGeometry x="535" y="230" width="50" height="50" as="geometry" />
        </mxCell>
        <mxCell id="D699powLLGigEukS-yTL-12" value="L2 Switch" style="text;html=1;resizable=0;autosize=1;align=center;verticalAlign=middle;points=[];fillColor=none;strokeColor=none;rounded=0;" vertex="1" parent="D9daAo4ayCbJI-qHOZgS-1">
          <mxGeometry x="405" y="280" width="70" height="20" as="geometry" />
        </mxCell>
        <mxCell id="D699powLLGigEukS-yTL-13" value="L2 Switch" style="text;html=1;resizable=0;autosize=1;align=center;verticalAlign=middle;points=[];fillColor=none;strokeColor=none;rounded=0;" vertex="1" parent="D9daAo4ayCbJI-qHOZgS-1">
          <mxGeometry x="465" y="280" width="70" height="20" as="geometry" />
        </mxCell>
        <mxCell id="D699powLLGigEukS-yTL-14" value="L2 Switch" style="text;html=1;resizable=0;autosize=1;align=center;verticalAlign=middle;points=[];fillColor=none;strokeColor=none;rounded=0;" vertex="1" parent="D9daAo4ayCbJI-qHOZgS-1">
          <mxGeometry x="525" y="280" width="70" height="20" as="geometry" />
        </mxCell>
        <mxCell id="D699powLLGigEukS-yTL-15" value="L3 Switch" style="text;html=1;resizable=0;autosize=1;align=center;verticalAlign=middle;points=[];fillColor=none;strokeColor=none;rounded=0;" vertex="1" parent="D9daAo4ayCbJI-qHOZgS-1">
          <mxGeometry x="345" y="194" width="70" height="20" as="geometry" />
        </mxCell>
        <mxCell id="D699powLLGigEukS-yTL-16" value="" style="edgeStyle=none;rounded=0;orthogonalLoop=1;jettySize=auto;html=1;endArrow=classicThin;endFill=1;strokeWidth=2;fontSize=12;" edge="1" source="D699powLLGigEukS-yTL-17" target="D699powLLGigEukS-yTL-18" parent="D9daAo4ayCbJI-qHOZgS-1">
          <mxGeometry relative="1" as="geometry" />
        </mxCell>
        <mxCell id="D699powLLGigEukS-yTL-17" value="VRRP" style="text;html=1;resizable=0;autosize=1;align=center;verticalAlign=middle;points=[];fillColor=none;strokeColor=none;rounded=0;" vertex="1" parent="D9daAo4ayCbJI-qHOZgS-1">
          <mxGeometry x="479" y="140" width="50" height="20" as="geometry" />
        </mxCell>
        <mxCell id="Xxhv6FMQhlTdWQfQUY-s-25" value="" style="edgeStyle=orthogonalEdgeStyle;rounded=0;orthogonalLoop=1;jettySize=auto;html=1;" edge="1" parent="D9daAo4ayCbJI-qHOZgS-1" source="D699powLLGigEukS-yTL-18" target="Xxhv6FMQhlTdWQfQUY-s-24">
          <mxGeometry relative="1" as="geometry" />
        </mxCell>
        <mxCell id="D699powLLGigEukS-yTL-18" value="L3VPN MLPS" style="text;html=1;resizable=0;autosize=1;align=center;verticalAlign=middle;points=[];fillColor=none;strokeColor=none;rounded=0;" vertex="1" parent="D9daAo4ayCbJI-qHOZgS-1">
          <mxGeometry x="459" y="70" width="90" height="20" as="geometry" />
        </mxCell>
        <mxCell id="Xxhv6FMQhlTdWQfQUY-s-24" value="ЦОД 1,3 link" style="text;html=1;resizable=0;autosize=1;align=center;verticalAlign=middle;points=[];fillColor=none;strokeColor=none;rounded=0;" vertex="1" parent="D9daAo4ayCbJI-qHOZgS-1">
          <mxGeometry x="464" y="10" width="80" height="20" as="geometry" />
        </mxCell>
        <mxCell id="D699powLLGigEukS-yTL-19" value="" style="html=1;dashed=0;whitespace=wrap;fillColor=#2875E2;strokeColor=#ffffff;points=[[0.005,0.63,0],[0.1,0.2,0],[0.9,0.2,0],[0.5,0,0],[0.995,0.63,0],[0.72,0.99,0],[0.5,1,0],[0.28,0.99,0]];shape=mxgraph.kubernetes.icon;prIcon=ing" vertex="1" parent="D9daAo4ayCbJI-qHOZgS-1">
          <mxGeometry x="134.26" y="442" width="58.24" height="44" as="geometry" />
        </mxCell>
        <mxCell id="D699powLLGigEukS-yTL-20" value="" style="html=1;dashed=0;whitespace=wrap;fillColor=#2875E2;strokeColor=#ffffff;points=[[0.005,0.63,0],[0.1,0.2,0],[0.9,0.2,0],[0.5,0,0],[0.995,0.63,0],[0.72,0.99,0],[0.5,1,0],[0.28,0.99,0]];shape=mxgraph.kubernetes.icon;prIcon=api" vertex="1" parent="D9daAo4ayCbJI-qHOZgS-1">
          <mxGeometry x="147.5" y="315" width="40" height="38" as="geometry" />
        </mxCell>
        <mxCell id="D699powLLGigEukS-yTL-21" value="" style="html=1;dashed=0;whitespace=wrap;fillColor=#2875E2;strokeColor=#ffffff;points=[[0.005,0.63,0],[0.1,0.2,0],[0.9,0.2,0],[0.5,0,0],[0.995,0.63,0],[0.72,0.99,0],[0.5,1,0],[0.28,0.99,0]];shape=mxgraph.kubernetes.icon;prIcon=node" vertex="1" parent="D9daAo4ayCbJI-qHOZgS-1">
          <mxGeometry x="102.5" y="490" width="40" height="48" as="geometry" />
        </mxCell>
        <mxCell id="D699powLLGigEukS-yTL-22" value="" style="html=1;dashed=0;whitespace=wrap;fillColor=#2875E2;strokeColor=#ffffff;points=[[0.005,0.63,0],[0.1,0.2,0],[0.9,0.2,0],[0.5,0,0],[0.995,0.63,0],[0.72,0.99,0],[0.5,1,0],[0.28,0.99,0]];shape=mxgraph.kubernetes.icon;prIcon=pod" vertex="1" parent="D9daAo4ayCbJI-qHOZgS-1">
          <mxGeometry x="127.5" y="550" width="50" height="38" as="geometry" />
        </mxCell>
        <mxCell id="D699powLLGigEukS-yTL-23" value="" style="html=1;dashed=0;whitespace=wrap;fillColor=#2875E2;strokeColor=#ffffff;points=[[0.005,0.63,0],[0.1,0.2,0],[0.9,0.2,0],[0.5,0,0],[0.995,0.63,0],[0.72,0.99,0],[0.5,1,0],[0.28,0.99,0]];shape=mxgraph.kubernetes.icon;prIcon=etcd" vertex="1" parent="D9daAo4ayCbJI-qHOZgS-1">
          <mxGeometry x="92.5" y="315" width="40" height="38" as="geometry" />
        </mxCell>
        <mxCell id="D699powLLGigEukS-yTL-24" value="" style="html=1;dashed=0;whitespace=wrap;fillColor=#2875E2;strokeColor=#ffffff;points=[[0.005,0.63,0],[0.1,0.2,0],[0.9,0.2,0],[0.5,0,0],[0.995,0.63,0],[0.72,0.99,0],[0.5,1,0],[0.28,0.99,0]];shape=mxgraph.kubernetes.icon;prIcon=pod" vertex="1" parent="D9daAo4ayCbJI-qHOZgS-1">
          <mxGeometry x="87.5" y="550" width="40" height="38" as="geometry" />
        </mxCell>
        <mxCell id="D699powLLGigEukS-yTL-25" value="" style="html=1;dashed=0;whitespace=wrap;fillColor=#2875E2;strokeColor=#ffffff;points=[[0.005,0.63,0],[0.1,0.2,0],[0.9,0.2,0],[0.5,0,0],[0.995,0.63,0],[0.72,0.99,0],[0.5,1,0],[0.28,0.99,0]];shape=mxgraph.kubernetes.icon;prIcon=pod" vertex="1" parent="D9daAo4ayCbJI-qHOZgS-1">
          <mxGeometry x="167.5" y="550" width="50" height="38" as="geometry" />
        </mxCell>
        <mxCell id="D699powLLGigEukS-yTL-26" value="" style="html=1;dashed=0;whitespace=wrap;fillColor=#2875E2;strokeColor=#ffffff;points=[[0.005,0.63,0],[0.1,0.2,0],[0.9,0.2,0],[0.5,0,0],[0.995,0.63,0],[0.72,0.99,0],[0.5,1,0],[0.28,0.99,0]];shape=mxgraph.kubernetes.icon;prIcon=pod" vertex="1" parent="D9daAo4ayCbJI-qHOZgS-1">
          <mxGeometry x="210" y="550" width="50" height="38" as="geometry" />
        </mxCell>
        <mxCell id="D699powLLGigEukS-yTL-27" value="Экземпляр кластера Kubernetes" style="text;html=1;resizable=0;autosize=1;align=center;verticalAlign=middle;points=[];fillColor=none;strokeColor=none;rounded=0;fontStyle=1" vertex="1" parent="D9daAo4ayCbJI-qHOZgS-1">
          <mxGeometry x="17.5" y="230" width="210" height="20" as="geometry" />
        </mxCell>
        <mxCell id="D699powLLGigEukS-yTL-28" value="" style="html=1;dashed=0;whitespace=wrap;fillColor=#2875E2;strokeColor=#ffffff;points=[[0.005,0.63,0],[0.1,0.2,0],[0.9,0.2,0],[0.5,0,0],[0.995,0.63,0],[0.72,0.99,0],[0.5,1,0],[0.28,0.99,0]];shape=mxgraph.kubernetes.icon;prIcon=node" vertex="1" parent="D9daAo4ayCbJI-qHOZgS-1">
          <mxGeometry x="147.5" y="490" width="40" height="48" as="geometry" />
        </mxCell>
        <mxCell id="D699powLLGigEukS-yTL-29" value="" style="html=1;dashed=0;whitespace=wrap;fillColor=#2875E2;strokeColor=#ffffff;points=[[0.005,0.63,0],[0.1,0.2,0],[0.9,0.2,0],[0.5,0,0],[0.995,0.63,0],[0.72,0.99,0],[0.5,1,0],[0.28,0.99,0]];shape=mxgraph.kubernetes.icon;prIcon=node" vertex="1" parent="D9daAo4ayCbJI-qHOZgS-1">
          <mxGeometry x="192.5" y="490" width="40" height="48" as="geometry" />
        </mxCell>
        <mxCell id="D699powLLGigEukS-yTL-30" value="" style="html=1;dashed=0;whitespace=wrap;fillColor=#2875E2;strokeColor=#ffffff;points=[[0.005,0.63,0],[0.1,0.2,0],[0.9,0.2,0],[0.5,0,0],[0.995,0.63,0],[0.72,0.99,0],[0.5,1,0],[0.28,0.99,0]];shape=mxgraph.kubernetes.icon;prIcon=master" vertex="1" parent="D9daAo4ayCbJI-qHOZgS-1">
          <mxGeometry x="137.5" y="370" width="55" height="46" as="geometry" />
        </mxCell>
        <mxCell id="D699powLLGigEukS-yTL-31" style="edgeStyle=none;rounded=0;orthogonalLoop=1;jettySize=auto;html=1;exitX=0.995;exitY=0.63;exitDx=0;exitDy=0;exitPerimeter=0;entryX=0;entryY=0.75;entryDx=0;entryDy=0;strokeWidth=2;" edge="1" source="D699powLLGigEukS-yTL-32" target="D699powLLGigEukS-yTL-0" parent="D9daAo4ayCbJI-qHOZgS-1">
          <mxGeometry relative="1" as="geometry" />
        </mxCell>
        <mxCell id="D699powLLGigEukS-yTL-32" value="" style="html=1;dashed=0;whitespace=wrap;fillColor=#2875E2;strokeColor=#ffffff;points=[[0.005,0.63,0],[0.1,0.2,0],[0.9,0.2,0],[0.5,0,0],[0.995,0.63,0],[0.72,0.99,0],[0.5,1,0],[0.28,0.99,0]];shape=mxgraph.kubernetes.icon;prIcon=vol" vertex="1" parent="D9daAo4ayCbJI-qHOZgS-1">
          <mxGeometry x="145" y="610" width="42.5" height="38" as="geometry" />
        </mxCell>
        <mxCell id="D699powLLGigEukS-yTL-34" value="APP1" style="text;html=1;resizable=0;autosize=1;align=center;verticalAlign=middle;points=[];fillColor=none;strokeColor=none;rounded=0;" vertex="1" parent="D9daAo4ayCbJI-qHOZgS-1">
          <mxGeometry x="82.5" y="588" width="50" height="20" as="geometry" />
        </mxCell>
        <mxCell id="D699powLLGigEukS-yTL-35" value="PG1" style="text;html=1;resizable=0;autosize=1;align=center;verticalAlign=middle;points=[];fillColor=none;strokeColor=none;rounded=0;" vertex="1" parent="D9daAo4ayCbJI-qHOZgS-1">
          <mxGeometry x="132.5" y="588" width="40" height="20" as="geometry" />
        </mxCell>
        <mxCell id="D699powLLGigEukS-yTL-36" value="Red1" style="text;html=1;resizable=0;autosize=1;align=center;verticalAlign=middle;points=[];fillColor=none;strokeColor=none;rounded=0;" vertex="1" parent="D9daAo4ayCbJI-qHOZgS-1">
          <mxGeometry x="167.5" y="588" width="50" height="20" as="geometry" />
        </mxCell>
        <mxCell id="D699powLLGigEukS-yTL-37" value="" style="shape=mxgraph.cisco.storage.relational_database;html=1;pointerEvents=1;dashed=0;fillColor=#036897;strokeColor=#ffffff;strokeWidth=2;verticalLabelPosition=bottom;verticalAlign=top;align=center;outlineConnect=0;" vertex="1" parent="D9daAo4ayCbJI-qHOZgS-1">
          <mxGeometry x="330" y="606" width="40" height="27" as="geometry" />
        </mxCell>
        <mxCell id="Xxhv6FMQhlTdWQfQUY-s-27" value="" style="edgeStyle=orthogonalEdgeStyle;rounded=0;orthogonalLoop=1;jettySize=auto;html=1;" edge="1" parent="D9daAo4ayCbJI-qHOZgS-1" source="D699powLLGigEukS-yTL-40" target="D699powLLGigEukS-yTL-0">
          <mxGeometry relative="1" as="geometry" />
        </mxCell>
        <mxCell id="D699powLLGigEukS-yTL-40" value="Ceph volume&amp;nbsp; кластер" style="text;html=1;resizable=0;autosize=1;align=center;verticalAlign=middle;points=[];fillColor=none;strokeColor=none;rounded=0;" vertex="1" parent="D9daAo4ayCbJI-qHOZgS-1">
          <mxGeometry x="280" y="663" width="140" height="20" as="geometry" />
        </mxCell>
        <mxCell id="D699powLLGigEukS-yTL-41" style="edgeStyle=none;rounded=0;orthogonalLoop=1;jettySize=auto;html=1;exitX=0.5;exitY=1;exitDx=0;exitDy=0;exitPerimeter=0;strokeWidth=2;" edge="1" source="D699powLLGigEukS-yTL-37" target="D699powLLGigEukS-yTL-37" parent="D9daAo4ayCbJI-qHOZgS-1">
          <mxGeometry relative="1" as="geometry" />
        </mxCell>
        <mxCell id="D699powLLGigEukS-yTL-42" value="Persistant volume" style="text;html=1;resizable=0;autosize=1;align=center;verticalAlign=middle;points=[];fillColor=none;strokeColor=none;rounded=0;" vertex="1" parent="D9daAo4ayCbJI-qHOZgS-1">
          <mxGeometry x="112.5" y="648" width="110" height="20" as="geometry" />
        </mxCell>
        <mxCell id="D699powLLGigEukS-yTL-43" style="edgeStyle=none;rounded=0;orthogonalLoop=1;jettySize=auto;html=1;exitX=0.75;exitY=0;exitDx=0;exitDy=0;strokeWidth=2;" edge="1" source="D699powLLGigEukS-yTL-0" target="D699powLLGigEukS-yTL-0" parent="D9daAo4ayCbJI-qHOZgS-1">
          <mxGeometry relative="1" as="geometry" />
        </mxCell>
        <mxCell id="D699powLLGigEukS-yTL-44" value="API Server" style="text;html=1;resizable=0;autosize=1;align=center;verticalAlign=middle;points=[];fillColor=none;strokeColor=none;rounded=0;" vertex="1" parent="D9daAo4ayCbJI-qHOZgS-1">
          <mxGeometry x="182.5" y="324" width="70" height="20" as="geometry" />
        </mxCell>
        <mxCell id="D699powLLGigEukS-yTL-45" value="Master" style="text;html=1;resizable=0;autosize=1;align=center;verticalAlign=middle;points=[];fillColor=none;strokeColor=none;rounded=0;" vertex="1" parent="D9daAo4ayCbJI-qHOZgS-1">
          <mxGeometry x="197.5" y="383" width="50" height="20" as="geometry" />
        </mxCell>
        <mxCell id="D699powLLGigEukS-yTL-46" value="Worker nodes" style="text;html=1;resizable=0;autosize=1;align=center;verticalAlign=middle;points=[];fillColor=none;strokeColor=none;rounded=0;" vertex="1" parent="D9daAo4ayCbJI-qHOZgS-1">
          <mxGeometry x="120" y="533" width="90" height="20" as="geometry" />
        </mxCell>
        <mxCell id="D699powLLGigEukS-yTL-47" value="Ingress nginx для APP1" style="text;html=1;resizable=0;autosize=1;align=center;verticalAlign=middle;points=[];fillColor=none;strokeColor=none;rounded=0;" vertex="1" parent="D9daAo4ayCbJI-qHOZgS-1">
          <mxGeometry x="87.5" y="425" width="150" height="20" as="geometry" />
        </mxCell>
        <mxCell id="D699powLLGigEukS-yTL-48" value="Pods" style="text;html=1;resizable=0;autosize=1;align=center;verticalAlign=middle;points=[];fillColor=none;strokeColor=none;rounded=0;" vertex="1" parent="D9daAo4ayCbJI-qHOZgS-1">
          <mxGeometry x="47.5" y="559" width="40" height="20" as="geometry" />
        </mxCell>
        <mxCell id="D699powLLGigEukS-yTL-49" value="ETCD 1" style="text;html=1;resizable=0;autosize=1;align=center;verticalAlign=middle;points=[];fillColor=none;strokeColor=none;rounded=0;" vertex="1" parent="D9daAo4ayCbJI-qHOZgS-1">
          <mxGeometry x="82.5" y="353" width="60" height="20" as="geometry" />
        </mxCell>
        <mxCell id="D699powLLGigEukS-yTL-54" value="" style="edgeStyle=none;rounded=0;orthogonalLoop=1;jettySize=auto;html=1;endArrow=classicThin;endFill=1;strokeWidth=2;entryX=0.358;entryY=-0.014;entryDx=0;entryDy=0;entryPerimeter=0;" edge="1" source="D699powLLGigEukS-yTL-57" target="D699powLLGigEukS-yTL-3" parent="D9daAo4ayCbJI-qHOZgS-1">
          <mxGeometry relative="1" as="geometry" />
        </mxCell>
        <mxCell id="D699powLLGigEukS-yTL-55" style="edgeStyle=none;rounded=0;orthogonalLoop=1;jettySize=auto;html=1;endArrow=classicThin;endFill=1;strokeWidth=2;" edge="1" source="D699powLLGigEukS-yTL-57" target="D699powLLGigEukS-yTL-8" parent="D9daAo4ayCbJI-qHOZgS-1">
          <mxGeometry relative="1" as="geometry" />
        </mxCell>
        <mxCell id="D699powLLGigEukS-yTL-56" value="" style="edgeStyle=none;rounded=0;orthogonalLoop=1;jettySize=auto;html=1;endArrow=classicThin;endFill=1;strokeWidth=2;fontSize=12;" edge="1" source="D699powLLGigEukS-yTL-57" target="D699powLLGigEukS-yTL-61" parent="D9daAo4ayCbJI-qHOZgS-1">
          <mxGeometry relative="1" as="geometry" />
        </mxCell>
        <mxCell id="D699powLLGigEukS-yTL-57" value="" style="points=[[0.015,0.015,0],[0.985,0.015,0],[0.985,0.985,0],[0.015,0.985,0],[0.25,0,0],[0.5,0,0],[0.75,0,0],[1,0.25,0],[1,0.5,0],[1,0.75,0],[0.75,1,0],[0.5,1,0],[0.25,1,0],[0,0.75,0],[0,0.5,0],[0,0.25,0]];verticalLabelPosition=bottom;html=1;verticalAlign=top;aspect=fixed;align=center;pointerEvents=1;shape=mxgraph.cisco19.rect;prIcon=l3_switch;fillColor=#FAFAFA;strokeColor=#005073;" vertex="1" parent="D9daAo4ayCbJI-qHOZgS-1">
          <mxGeometry x="450" y="178" width="35" height="35" as="geometry" />
        </mxCell>
        <mxCell id="D699powLLGigEukS-yTL-58" style="edgeStyle=none;rounded=0;orthogonalLoop=1;jettySize=auto;html=1;exitX=0.5;exitY=1;exitDx=0;exitDy=0;exitPerimeter=0;entryX=0.711;entryY=0.014;entryDx=0;entryDy=0;entryPerimeter=0;endArrow=classicThin;endFill=1;strokeWidth=2;" edge="1" source="D699powLLGigEukS-yTL-61" target="D699powLLGigEukS-yTL-3" parent="D9daAo4ayCbJI-qHOZgS-1">
          <mxGeometry relative="1" as="geometry" />
        </mxCell>
        <mxCell id="D699powLLGigEukS-yTL-59" style="edgeStyle=none;rounded=0;orthogonalLoop=1;jettySize=auto;html=1;endArrow=classicThin;endFill=1;strokeWidth=2;" edge="1" source="D699powLLGigEukS-yTL-61" target="D699powLLGigEukS-yTL-7" parent="D9daAo4ayCbJI-qHOZgS-1">
          <mxGeometry relative="1" as="geometry" />
        </mxCell>
        <mxCell id="D699powLLGigEukS-yTL-60" style="edgeStyle=none;rounded=0;orthogonalLoop=1;jettySize=auto;html=1;exitX=0;exitY=0.5;exitDx=0;exitDy=0;exitPerimeter=0;endArrow=classicThin;endFill=1;strokeWidth=2;fontSize=12;" edge="1" source="D699powLLGigEukS-yTL-61" parent="D9daAo4ayCbJI-qHOZgS-1">
          <mxGeometry relative="1" as="geometry">
            <mxPoint x="490" y="194" as="targetPoint" />
          </mxGeometry>
        </mxCell>
        <mxCell id="D699powLLGigEukS-yTL-61" value="" style="points=[[0.015,0.015,0],[0.985,0.015,0],[0.985,0.985,0],[0.015,0.985,0],[0.25,0,0],[0.5,0,0],[0.75,0,0],[1,0.25,0],[1,0.5,0],[1,0.75,0],[0.75,1,0],[0.5,1,0],[0.25,1,0],[0,0.75,0],[0,0.5,0],[0,0.25,0]];verticalLabelPosition=bottom;html=1;verticalAlign=top;aspect=fixed;align=center;pointerEvents=1;shape=mxgraph.cisco19.rect;prIcon=l3_switch;fillColor=#FAFAFA;strokeColor=#005073;" vertex="1" parent="D9daAo4ayCbJI-qHOZgS-1">
          <mxGeometry x="529" y="177" width="36" height="36" as="geometry" />
        </mxCell>
        <mxCell id="D699powLLGigEukS-yTL-106" value="&lt;div&gt;Ing nginx&lt;/div&gt;&lt;div&gt;&lt;br&gt;&lt;/div&gt;" style="text;html=1;resizable=0;autosize=1;align=center;verticalAlign=middle;points=[];fillColor=none;strokeColor=none;rounded=0;" vertex="1" parent="D9daAo4ayCbJI-qHOZgS-1">
          <mxGeometry x="205" y="585" width="60" height="30" as="geometry" />
        </mxCell>
        <mxCell id="D699powLLGigEukS-yTL-107" value="&lt;b&gt;&lt;font style=&quot;font-size: 23px&quot;&gt;ЦОД 2&lt;br&gt;&lt;/font&gt;&lt;/b&gt;" style="text;html=1;resizable=0;autosize=1;align=center;verticalAlign=middle;points=[];fillColor=none;strokeColor=none;rounded=0;" vertex="1" parent="D9daAo4ayCbJI-qHOZgS-1">
          <mxGeometry x="52.5" y="50" width="90" height="20" as="geometry" />
        </mxCell>
        <mxCell id="Xxhv6FMQhlTdWQfQUY-s-0" value="" style="verticalLabelPosition=bottom;html=1;verticalAlign=top;align=center;strokeColor=none;fillColor=#00BEF2;shape=mxgraph.azure.virtual_machine;" vertex="1" parent="D9daAo4ayCbJI-qHOZgS-1">
          <mxGeometry x="520" y="365.5" width="50" height="40" as="geometry" />
        </mxCell>
        <mxCell id="Xxhv6FMQhlTdWQfQUY-s-1" value="" style="edgeStyle=none;rounded=0;orthogonalLoop=1;jettySize=auto;html=1;strokeWidth=2;" edge="1" source="Xxhv6FMQhlTdWQfQUY-s-2" target="Xxhv6FMQhlTdWQfQUY-s-3" parent="D9daAo4ayCbJI-qHOZgS-1">
          <mxGeometry relative="1" as="geometry" />
        </mxCell>
        <mxCell id="Xxhv6FMQhlTdWQfQUY-s-2" value="VM7" style="text;html=1;resizable=0;autosize=1;align=center;verticalAlign=middle;points=[];fillColor=none;strokeColor=none;rounded=0;" vertex="1" parent="D9daAo4ayCbJI-qHOZgS-1">
          <mxGeometry x="575" y="367.5" width="40" height="20" as="geometry" />
        </mxCell>
        <mxCell id="Xxhv6FMQhlTdWQfQUY-s-3" value="&lt;div style=&quot;font-size: 12px;&quot;&gt;Ceph node1&lt;/div&gt;&lt;div style=&quot;font-size: 12px;&quot;&gt;&lt;br style=&quot;font-size: 12px;&quot;&gt;&lt;/div&gt;" style="text;html=1;resizable=0;autosize=1;align=center;verticalAlign=middle;points=[];fillColor=none;strokeColor=none;rounded=0;fontSize=12;fontStyle=1" vertex="1" parent="D9daAo4ayCbJI-qHOZgS-1">
          <mxGeometry x="680" y="362.5" width="80" height="30" as="geometry" />
        </mxCell>
        <mxCell id="Xxhv6FMQhlTdWQfQUY-s-4" value="" style="verticalLabelPosition=bottom;html=1;verticalAlign=top;align=center;strokeColor=none;fillColor=#00BEF2;shape=mxgraph.azure.virtual_machine;" vertex="1" parent="D9daAo4ayCbJI-qHOZgS-1">
          <mxGeometry x="520" y="410" width="50" height="40" as="geometry" />
        </mxCell>
        <mxCell id="Xxhv6FMQhlTdWQfQUY-s-5" value="" style="edgeStyle=none;rounded=0;orthogonalLoop=1;jettySize=auto;html=1;strokeWidth=2;" edge="1" source="Xxhv6FMQhlTdWQfQUY-s-6" parent="D9daAo4ayCbJI-qHOZgS-1">
          <mxGeometry relative="1" as="geometry">
            <mxPoint x="690" y="429" as="targetPoint" />
          </mxGeometry>
        </mxCell>
        <mxCell id="Xxhv6FMQhlTdWQfQUY-s-6" value="VM8" style="text;html=1;resizable=0;autosize=1;align=center;verticalAlign=middle;points=[];fillColor=none;strokeColor=none;rounded=0;" vertex="1" parent="D9daAo4ayCbJI-qHOZgS-1">
          <mxGeometry x="575" y="419" width="40" height="20" as="geometry" />
        </mxCell>
        <mxCell id="Xxhv6FMQhlTdWQfQUY-s-7" value="ETCD3" style="text;html=1;resizable=0;autosize=1;align=center;verticalAlign=middle;points=[];fillColor=none;strokeColor=none;rounded=0;fontSize=12;fontStyle=1" vertex="1" parent="D9daAo4ayCbJI-qHOZgS-1">
          <mxGeometry x="705" y="420" width="50" height="20" as="geometry" />
        </mxCell>
        <mxCell id="Xxhv6FMQhlTdWQfQUY-s-8" value="" style="verticalLabelPosition=bottom;html=1;verticalAlign=top;align=center;strokeColor=none;fillColor=#00BEF2;shape=mxgraph.azure.virtual_machine;" vertex="1" parent="D9daAo4ayCbJI-qHOZgS-1">
          <mxGeometry x="520" y="457" width="50" height="40" as="geometry" />
        </mxCell>
        <mxCell id="Xxhv6FMQhlTdWQfQUY-s-9" value="" style="edgeStyle=none;rounded=0;orthogonalLoop=1;jettySize=auto;html=1;strokeWidth=2;" edge="1" source="Xxhv6FMQhlTdWQfQUY-s-10" parent="D9daAo4ayCbJI-qHOZgS-1">
          <mxGeometry relative="1" as="geometry">
            <mxPoint x="690" y="469" as="targetPoint" />
          </mxGeometry>
        </mxCell>
        <mxCell id="Xxhv6FMQhlTdWQfQUY-s-10" value="VM9" style="text;html=1;resizable=0;autosize=1;align=center;verticalAlign=middle;points=[];fillColor=none;strokeColor=none;rounded=0;" vertex="1" parent="D9daAo4ayCbJI-qHOZgS-1">
          <mxGeometry x="575" y="459" width="40" height="20" as="geometry" />
        </mxCell>
        <mxCell id="Xxhv6FMQhlTdWQfQUY-s-11" value="ETCD4" style="text;html=1;resizable=0;autosize=1;align=center;verticalAlign=middle;points=[];fillColor=none;strokeColor=none;rounded=0;fontSize=12;fontStyle=1" vertex="1" parent="D9daAo4ayCbJI-qHOZgS-1">
          <mxGeometry x="705" y="460" width="50" height="20" as="geometry" />
        </mxCell>
        <mxCell id="Xxhv6FMQhlTdWQfQUY-s-12" value="" style="verticalLabelPosition=bottom;html=1;verticalAlign=top;align=center;strokeColor=none;fillColor=#00BEF2;shape=mxgraph.azure.virtual_machine;" vertex="1" parent="D9daAo4ayCbJI-qHOZgS-1">
          <mxGeometry x="520" y="502" width="50" height="40" as="geometry" />
        </mxCell>
        <mxCell id="Xxhv6FMQhlTdWQfQUY-s-13" value="" style="edgeStyle=none;rounded=0;orthogonalLoop=1;jettySize=auto;html=1;strokeWidth=2;" edge="1" source="Xxhv6FMQhlTdWQfQUY-s-14" target="Xxhv6FMQhlTdWQfQUY-s-15" parent="D9daAo4ayCbJI-qHOZgS-1">
          <mxGeometry relative="1" as="geometry" />
        </mxCell>
        <mxCell id="Xxhv6FMQhlTdWQfQUY-s-14" value="VM10" style="text;html=1;resizable=0;autosize=1;align=center;verticalAlign=middle;points=[];fillColor=none;strokeColor=none;rounded=0;" vertex="1" parent="D9daAo4ayCbJI-qHOZgS-1">
          <mxGeometry x="570" y="504" width="50" height="20" as="geometry" />
        </mxCell>
        <mxCell id="Xxhv6FMQhlTdWQfQUY-s-15" value="&lt;div&gt;Master node3&lt;/div&gt;&lt;div&gt;&lt;br&gt;&lt;/div&gt;" style="text;html=1;resizable=0;autosize=1;align=center;verticalAlign=middle;points=[];fillColor=none;strokeColor=none;rounded=0;fontSize=12;fontStyle=1" vertex="1" parent="D9daAo4ayCbJI-qHOZgS-1">
          <mxGeometry x="670" y="499" width="90" height="30" as="geometry" />
        </mxCell>
        <mxCell id="Xxhv6FMQhlTdWQfQUY-s-16" value="" style="verticalLabelPosition=bottom;html=1;verticalAlign=top;align=center;strokeColor=none;fillColor=#00BEF2;shape=mxgraph.azure.virtual_machine;" vertex="1" parent="D9daAo4ayCbJI-qHOZgS-1">
          <mxGeometry x="520" y="547" width="50" height="40" as="geometry" />
        </mxCell>
        <mxCell id="Xxhv6FMQhlTdWQfQUY-s-17" value="" style="edgeStyle=none;rounded=0;orthogonalLoop=1;jettySize=auto;html=1;strokeWidth=2;" edge="1" source="Xxhv6FMQhlTdWQfQUY-s-18" target="Xxhv6FMQhlTdWQfQUY-s-19" parent="D9daAo4ayCbJI-qHOZgS-1">
          <mxGeometry relative="1" as="geometry" />
        </mxCell>
        <mxCell id="Xxhv6FMQhlTdWQfQUY-s-18" value="VM11" style="text;html=1;resizable=0;autosize=1;align=center;verticalAlign=middle;points=[];fillColor=none;strokeColor=none;rounded=0;" vertex="1" parent="D9daAo4ayCbJI-qHOZgS-1">
          <mxGeometry x="575" y="544" width="40" height="20" as="geometry" />
        </mxCell>
        <mxCell id="Xxhv6FMQhlTdWQfQUY-s-19" value="&lt;div&gt;Master node4&lt;/div&gt;&lt;div&gt;&lt;br&gt;&lt;/div&gt;" style="text;html=1;resizable=0;autosize=1;align=center;verticalAlign=middle;points=[];fillColor=none;strokeColor=none;rounded=0;fontSize=12;fontStyle=1" vertex="1" parent="D9daAo4ayCbJI-qHOZgS-1">
          <mxGeometry x="670" y="539" width="90" height="30" as="geometry" />
        </mxCell>
        <mxCell id="Xxhv6FMQhlTdWQfQUY-s-20" value="" style="verticalLabelPosition=bottom;html=1;verticalAlign=top;align=center;strokeColor=none;fillColor=#00BEF2;shape=mxgraph.azure.virtual_machine;" vertex="1" parent="D9daAo4ayCbJI-qHOZgS-1">
          <mxGeometry x="520" y="593" width="50" height="40" as="geometry" />
        </mxCell>
        <mxCell id="Xxhv6FMQhlTdWQfQUY-s-21" value="" style="edgeStyle=none;rounded=0;orthogonalLoop=1;jettySize=auto;html=1;strokeWidth=2;" edge="1" source="Xxhv6FMQhlTdWQfQUY-s-22" target="Xxhv6FMQhlTdWQfQUY-s-23" parent="D9daAo4ayCbJI-qHOZgS-1">
          <mxGeometry relative="1" as="geometry" />
        </mxCell>
        <mxCell id="Xxhv6FMQhlTdWQfQUY-s-22" value="VM12" style="text;html=1;resizable=0;autosize=1;align=center;verticalAlign=middle;points=[];fillColor=none;strokeColor=none;rounded=0;" vertex="1" parent="D9daAo4ayCbJI-qHOZgS-1">
          <mxGeometry x="570" y="593" width="50" height="20" as="geometry" />
        </mxCell>
        <mxCell id="Xxhv6FMQhlTdWQfQUY-s-23" value="Worker Node2" style="text;html=1;resizable=0;autosize=1;align=center;verticalAlign=middle;points=[];fillColor=none;strokeColor=none;rounded=0;fontSize=12;fontStyle=1" vertex="1" parent="D9daAo4ayCbJI-qHOZgS-1">
          <mxGeometry x="665" y="593" width="100" height="20" as="geometry" />
        </mxCell>
      </root>
    </mxGraphModel>
  </diagram>
  <diagram id="eAFLMmqMRGXtsL-vlv0N" name="Page-3">
    <mxGraphModel dx="1422" dy="735" grid="1" gridSize="10" guides="1" tooltips="1" connect="1" arrows="1" fold="1" page="1" pageScale="1" pageWidth="827" pageHeight="1169" math="0" shadow="0">
      <root>
        <mxCell id="HgT05sSb6LrkyLWi5eaY-0" />
        <mxCell id="HgT05sSb6LrkyLWi5eaY-1" parent="HgT05sSb6LrkyLWi5eaY-0" />
        <mxCell id="9-cmXUhUi9A2ASZqGryK-0" value="" style="rounded=1;whiteSpace=wrap;html=1;" vertex="1" parent="HgT05sSb6LrkyLWi5eaY-1">
          <mxGeometry x="330" y="620" width="60" height="53" as="geometry" />
        </mxCell>
        <mxCell id="9-cmXUhUi9A2ASZqGryK-1" style="edgeStyle=none;rounded=0;orthogonalLoop=1;jettySize=auto;html=1;exitX=0;exitY=0.25;exitDx=0;exitDy=0;strokeWidth=2;" edge="1" source="9-cmXUhUi9A2ASZqGryK-3" target="9-cmXUhUi9A2ASZqGryK-4" parent="HgT05sSb6LrkyLWi5eaY-1">
          <mxGeometry relative="1" as="geometry" />
        </mxCell>
        <mxCell id="9-cmXUhUi9A2ASZqGryK-2" style="edgeStyle=none;rounded=0;orthogonalLoop=1;jettySize=auto;html=1;exitX=0.25;exitY=1;exitDx=0;exitDy=0;entryX=0.75;entryY=0;entryDx=0;entryDy=0;strokeWidth=2;" edge="1" source="9-cmXUhUi9A2ASZqGryK-3" target="9-cmXUhUi9A2ASZqGryK-0" parent="HgT05sSb6LrkyLWi5eaY-1">
          <mxGeometry relative="1" as="geometry" />
        </mxCell>
        <mxCell id="9-cmXUhUi9A2ASZqGryK-3" value="" style="rounded=1;whiteSpace=wrap;html=1;" vertex="1" parent="HgT05sSb6LrkyLWi5eaY-1">
          <mxGeometry x="400" y="235" width="220" height="85" as="geometry" />
        </mxCell>
        <mxCell id="9-cmXUhUi9A2ASZqGryK-4" value="" style="rounded=1;whiteSpace=wrap;html=1;" vertex="1" parent="HgT05sSb6LrkyLWi5eaY-1">
          <mxGeometry x="55" y="288" width="235" height="390" as="geometry" />
        </mxCell>
        <mxCell id="9-cmXUhUi9A2ASZqGryK-5" value="" style="edgeStyle=none;rounded=0;orthogonalLoop=1;jettySize=auto;html=1;endArrow=classicThin;endFill=1;strokeWidth=2;entryX=1;entryY=0.5;entryDx=0;entryDy=0;entryPerimeter=0;" edge="1" source="9-cmXUhUi9A2ASZqGryK-7" target="9-cmXUhUi9A2ASZqGryK-7" parent="HgT05sSb6LrkyLWi5eaY-1">
          <mxGeometry relative="1" as="geometry">
            <Array as="points" />
          </mxGeometry>
        </mxCell>
        <mxCell id="9-cmXUhUi9A2ASZqGryK-6" style="edgeStyle=none;rounded=0;orthogonalLoop=1;jettySize=auto;html=1;exitX=0.5;exitY=1;exitDx=0;exitDy=0;exitPerimeter=0;entryX=0.5;entryY=0;entryDx=0;entryDy=0;entryPerimeter=0;endArrow=classicThin;endFill=1;strokeWidth=2;" edge="1" source="9-cmXUhUi9A2ASZqGryK-7" target="9-cmXUhUi9A2ASZqGryK-57" parent="HgT05sSb6LrkyLWi5eaY-1">
          <mxGeometry relative="1" as="geometry" />
        </mxCell>
        <mxCell id="9-cmXUhUi9A2ASZqGryK-7" value="" style="shape=mxgraph.cisco.routers.router;html=1;pointerEvents=1;dashed=0;fillColor=#036897;strokeColor=#ffffff;strokeWidth=2;verticalLabelPosition=bottom;verticalAlign=top;align=center;outlineConnect=0;" vertex="1" parent="HgT05sSb6LrkyLWi5eaY-1">
          <mxGeometry x="460" y="158.5" width="40" height="23" as="geometry" />
        </mxCell>
        <mxCell id="9-cmXUhUi9A2ASZqGryK-8" value="" style="shape=mxgraph.cisco.routers.router;html=1;pointerEvents=1;dashed=0;fillColor=#036897;strokeColor=#ffffff;strokeWidth=2;verticalLabelPosition=bottom;verticalAlign=top;align=center;outlineConnect=0;" vertex="1" parent="HgT05sSb6LrkyLWi5eaY-1">
          <mxGeometry x="539" y="158.5" width="40" height="23" as="geometry" />
        </mxCell>
        <mxCell id="9-cmXUhUi9A2ASZqGryK-9" value="" style="points=[[0.015,0.015,0],[0.985,0.015,0],[0.985,0.985,0],[0.015,0.985,0],[0.25,0,0],[0.5,0,0],[0.75,0,0],[1,0.25,0],[1,0.5,0],[1,0.75,0],[0.75,1,0],[0.5,1,0],[0.25,1,0],[0,0.75,0],[0,0.5,0],[0,0.25,0]];verticalLabelPosition=bottom;html=1;verticalAlign=top;aspect=fixed;align=center;pointerEvents=1;shape=mxgraph.cisco19.rect;prIcon=l2_switch;fillColor=#FAFAFA;strokeColor=#005073;" vertex="1" parent="HgT05sSb6LrkyLWi5eaY-1">
          <mxGeometry x="430" y="240" width="50" height="50" as="geometry" />
        </mxCell>
        <mxCell id="9-cmXUhUi9A2ASZqGryK-10" value="" style="points=[[0.015,0.015,0],[0.985,0.015,0],[0.985,0.985,0],[0.015,0.985,0],[0.25,0,0],[0.5,0,0],[0.75,0,0],[1,0.25,0],[1,0.5,0],[1,0.75,0],[0.75,1,0],[0.5,1,0],[0.25,1,0],[0,0.75,0],[0,0.5,0],[0,0.25,0]];verticalLabelPosition=bottom;html=1;verticalAlign=top;aspect=fixed;align=center;pointerEvents=1;shape=mxgraph.cisco19.rect;prIcon=l2_switch;fillColor=#FAFAFA;strokeColor=#005073;" vertex="1" parent="HgT05sSb6LrkyLWi5eaY-1">
          <mxGeometry x="485" y="240" width="50" height="50" as="geometry" />
        </mxCell>
        <mxCell id="9-cmXUhUi9A2ASZqGryK-11" value="" style="points=[[0.015,0.015,0],[0.985,0.015,0],[0.985,0.985,0],[0.015,0.985,0],[0.25,0,0],[0.5,0,0],[0.75,0,0],[1,0.25,0],[1,0.5,0],[1,0.75,0],[0.75,1,0],[0.5,1,0],[0.25,1,0],[0,0.75,0],[0,0.5,0],[0,0.25,0]];verticalLabelPosition=bottom;html=1;verticalAlign=top;aspect=fixed;align=center;pointerEvents=1;shape=mxgraph.cisco19.rect;prIcon=l2_switch;fillColor=#FAFAFA;strokeColor=#005073;" vertex="1" parent="HgT05sSb6LrkyLWi5eaY-1">
          <mxGeometry x="545" y="240" width="50" height="50" as="geometry" />
        </mxCell>
        <mxCell id="9-cmXUhUi9A2ASZqGryK-12" value="L2 Switch" style="text;html=1;resizable=0;autosize=1;align=center;verticalAlign=middle;points=[];fillColor=none;strokeColor=none;rounded=0;" vertex="1" parent="HgT05sSb6LrkyLWi5eaY-1">
          <mxGeometry x="415" y="290" width="70" height="20" as="geometry" />
        </mxCell>
        <mxCell id="9-cmXUhUi9A2ASZqGryK-13" value="L2 Switch" style="text;html=1;resizable=0;autosize=1;align=center;verticalAlign=middle;points=[];fillColor=none;strokeColor=none;rounded=0;" vertex="1" parent="HgT05sSb6LrkyLWi5eaY-1">
          <mxGeometry x="475" y="290" width="70" height="20" as="geometry" />
        </mxCell>
        <mxCell id="9-cmXUhUi9A2ASZqGryK-14" value="L2 Switch" style="text;html=1;resizable=0;autosize=1;align=center;verticalAlign=middle;points=[];fillColor=none;strokeColor=none;rounded=0;" vertex="1" parent="HgT05sSb6LrkyLWi5eaY-1">
          <mxGeometry x="535" y="290" width="70" height="20" as="geometry" />
        </mxCell>
        <mxCell id="9-cmXUhUi9A2ASZqGryK-15" value="L3 Switch" style="text;html=1;resizable=0;autosize=1;align=center;verticalAlign=middle;points=[];fillColor=none;strokeColor=none;rounded=0;" vertex="1" parent="HgT05sSb6LrkyLWi5eaY-1">
          <mxGeometry x="355" y="204" width="70" height="20" as="geometry" />
        </mxCell>
        <mxCell id="9-cmXUhUi9A2ASZqGryK-16" value="" style="edgeStyle=none;rounded=0;orthogonalLoop=1;jettySize=auto;html=1;endArrow=classicThin;endFill=1;strokeWidth=2;fontSize=12;" edge="1" source="9-cmXUhUi9A2ASZqGryK-17" target="9-cmXUhUi9A2ASZqGryK-18" parent="HgT05sSb6LrkyLWi5eaY-1">
          <mxGeometry relative="1" as="geometry" />
        </mxCell>
        <mxCell id="9-cmXUhUi9A2ASZqGryK-17" value="VRRP" style="text;html=1;resizable=0;autosize=1;align=center;verticalAlign=middle;points=[];fillColor=none;strokeColor=none;rounded=0;" vertex="1" parent="HgT05sSb6LrkyLWi5eaY-1">
          <mxGeometry x="489" y="150" width="50" height="20" as="geometry" />
        </mxCell>
        <mxCell id="9UjrlRRTFkhtqQW_SVrv-1" value="" style="edgeStyle=orthogonalEdgeStyle;rounded=0;orthogonalLoop=1;jettySize=auto;html=1;" edge="1" parent="HgT05sSb6LrkyLWi5eaY-1" source="9-cmXUhUi9A2ASZqGryK-18" target="9UjrlRRTFkhtqQW_SVrv-0">
          <mxGeometry relative="1" as="geometry" />
        </mxCell>
        <mxCell id="9-cmXUhUi9A2ASZqGryK-18" value="L3VPN MLPS" style="text;html=1;resizable=0;autosize=1;align=center;verticalAlign=middle;points=[];fillColor=none;strokeColor=none;rounded=0;" vertex="1" parent="HgT05sSb6LrkyLWi5eaY-1">
          <mxGeometry x="469" y="80" width="90" height="20" as="geometry" />
        </mxCell>
        <mxCell id="9UjrlRRTFkhtqQW_SVrv-0" value="ЦОД 1,2 link" style="text;html=1;resizable=0;autosize=1;align=center;verticalAlign=middle;points=[];fillColor=none;strokeColor=none;rounded=0;" vertex="1" parent="HgT05sSb6LrkyLWi5eaY-1">
          <mxGeometry x="474" y="10" width="80" height="20" as="geometry" />
        </mxCell>
        <mxCell id="9-cmXUhUi9A2ASZqGryK-19" value="" style="html=1;dashed=0;whitespace=wrap;fillColor=#2875E2;strokeColor=#ffffff;points=[[0.005,0.63,0],[0.1,0.2,0],[0.9,0.2,0],[0.5,0,0],[0.995,0.63,0],[0.72,0.99,0],[0.5,1,0],[0.28,0.99,0]];shape=mxgraph.kubernetes.icon;prIcon=ing" vertex="1" parent="HgT05sSb6LrkyLWi5eaY-1">
          <mxGeometry x="144.26" y="452" width="58.24" height="44" as="geometry" />
        </mxCell>
        <mxCell id="9-cmXUhUi9A2ASZqGryK-20" value="" style="html=1;dashed=0;whitespace=wrap;fillColor=#2875E2;strokeColor=#ffffff;points=[[0.005,0.63,0],[0.1,0.2,0],[0.9,0.2,0],[0.5,0,0],[0.995,0.63,0],[0.72,0.99,0],[0.5,1,0],[0.28,0.99,0]];shape=mxgraph.kubernetes.icon;prIcon=api" vertex="1" parent="HgT05sSb6LrkyLWi5eaY-1">
          <mxGeometry x="157.5" y="325" width="40" height="38" as="geometry" />
        </mxCell>
        <mxCell id="9-cmXUhUi9A2ASZqGryK-21" value="" style="html=1;dashed=0;whitespace=wrap;fillColor=#2875E2;strokeColor=#ffffff;points=[[0.005,0.63,0],[0.1,0.2,0],[0.9,0.2,0],[0.5,0,0],[0.995,0.63,0],[0.72,0.99,0],[0.5,1,0],[0.28,0.99,0]];shape=mxgraph.kubernetes.icon;prIcon=node" vertex="1" parent="HgT05sSb6LrkyLWi5eaY-1">
          <mxGeometry x="112.5" y="500" width="40" height="48" as="geometry" />
        </mxCell>
        <mxCell id="9-cmXUhUi9A2ASZqGryK-22" value="" style="html=1;dashed=0;whitespace=wrap;fillColor=#2875E2;strokeColor=#ffffff;points=[[0.005,0.63,0],[0.1,0.2,0],[0.9,0.2,0],[0.5,0,0],[0.995,0.63,0],[0.72,0.99,0],[0.5,1,0],[0.28,0.99,0]];shape=mxgraph.kubernetes.icon;prIcon=pod" vertex="1" parent="HgT05sSb6LrkyLWi5eaY-1">
          <mxGeometry x="137.5" y="560" width="50" height="38" as="geometry" />
        </mxCell>
        <mxCell id="9-cmXUhUi9A2ASZqGryK-23" value="" style="html=1;dashed=0;whitespace=wrap;fillColor=#2875E2;strokeColor=#ffffff;points=[[0.005,0.63,0],[0.1,0.2,0],[0.9,0.2,0],[0.5,0,0],[0.995,0.63,0],[0.72,0.99,0],[0.5,1,0],[0.28,0.99,0]];shape=mxgraph.kubernetes.icon;prIcon=etcd" vertex="1" parent="HgT05sSb6LrkyLWi5eaY-1">
          <mxGeometry x="102.5" y="325" width="40" height="38" as="geometry" />
        </mxCell>
        <mxCell id="9-cmXUhUi9A2ASZqGryK-24" value="" style="html=1;dashed=0;whitespace=wrap;fillColor=#2875E2;strokeColor=#ffffff;points=[[0.005,0.63,0],[0.1,0.2,0],[0.9,0.2,0],[0.5,0,0],[0.995,0.63,0],[0.72,0.99,0],[0.5,1,0],[0.28,0.99,0]];shape=mxgraph.kubernetes.icon;prIcon=pod" vertex="1" parent="HgT05sSb6LrkyLWi5eaY-1">
          <mxGeometry x="97.5" y="560" width="40" height="38" as="geometry" />
        </mxCell>
        <mxCell id="9-cmXUhUi9A2ASZqGryK-25" value="" style="html=1;dashed=0;whitespace=wrap;fillColor=#2875E2;strokeColor=#ffffff;points=[[0.005,0.63,0],[0.1,0.2,0],[0.9,0.2,0],[0.5,0,0],[0.995,0.63,0],[0.72,0.99,0],[0.5,1,0],[0.28,0.99,0]];shape=mxgraph.kubernetes.icon;prIcon=pod" vertex="1" parent="HgT05sSb6LrkyLWi5eaY-1">
          <mxGeometry x="177.5" y="560" width="50" height="38" as="geometry" />
        </mxCell>
        <mxCell id="9-cmXUhUi9A2ASZqGryK-26" value="" style="html=1;dashed=0;whitespace=wrap;fillColor=#2875E2;strokeColor=#ffffff;points=[[0.005,0.63,0],[0.1,0.2,0],[0.9,0.2,0],[0.5,0,0],[0.995,0.63,0],[0.72,0.99,0],[0.5,1,0],[0.28,0.99,0]];shape=mxgraph.kubernetes.icon;prIcon=pod" vertex="1" parent="HgT05sSb6LrkyLWi5eaY-1">
          <mxGeometry x="220" y="560" width="50" height="38" as="geometry" />
        </mxCell>
        <mxCell id="9-cmXUhUi9A2ASZqGryK-27" value="Экземпляр кластера Kubernetes" style="text;html=1;resizable=0;autosize=1;align=center;verticalAlign=middle;points=[];fillColor=none;strokeColor=none;rounded=0;fontStyle=1" vertex="1" parent="HgT05sSb6LrkyLWi5eaY-1">
          <mxGeometry x="27.5" y="240" width="210" height="20" as="geometry" />
        </mxCell>
        <mxCell id="9-cmXUhUi9A2ASZqGryK-28" value="" style="html=1;dashed=0;whitespace=wrap;fillColor=#2875E2;strokeColor=#ffffff;points=[[0.005,0.63,0],[0.1,0.2,0],[0.9,0.2,0],[0.5,0,0],[0.995,0.63,0],[0.72,0.99,0],[0.5,1,0],[0.28,0.99,0]];shape=mxgraph.kubernetes.icon;prIcon=node" vertex="1" parent="HgT05sSb6LrkyLWi5eaY-1">
          <mxGeometry x="157.5" y="500" width="40" height="48" as="geometry" />
        </mxCell>
        <mxCell id="9-cmXUhUi9A2ASZqGryK-29" value="" style="html=1;dashed=0;whitespace=wrap;fillColor=#2875E2;strokeColor=#ffffff;points=[[0.005,0.63,0],[0.1,0.2,0],[0.9,0.2,0],[0.5,0,0],[0.995,0.63,0],[0.72,0.99,0],[0.5,1,0],[0.28,0.99,0]];shape=mxgraph.kubernetes.icon;prIcon=node" vertex="1" parent="HgT05sSb6LrkyLWi5eaY-1">
          <mxGeometry x="202.5" y="500" width="40" height="48" as="geometry" />
        </mxCell>
        <mxCell id="9-cmXUhUi9A2ASZqGryK-30" value="" style="html=1;dashed=0;whitespace=wrap;fillColor=#2875E2;strokeColor=#ffffff;points=[[0.005,0.63,0],[0.1,0.2,0],[0.9,0.2,0],[0.5,0,0],[0.995,0.63,0],[0.72,0.99,0],[0.5,1,0],[0.28,0.99,0]];shape=mxgraph.kubernetes.icon;prIcon=master" vertex="1" parent="HgT05sSb6LrkyLWi5eaY-1">
          <mxGeometry x="147.5" y="380" width="55" height="46" as="geometry" />
        </mxCell>
        <mxCell id="9-cmXUhUi9A2ASZqGryK-31" style="edgeStyle=none;rounded=0;orthogonalLoop=1;jettySize=auto;html=1;exitX=0.995;exitY=0.63;exitDx=0;exitDy=0;exitPerimeter=0;entryX=0;entryY=0.75;entryDx=0;entryDy=0;strokeWidth=2;" edge="1" source="9-cmXUhUi9A2ASZqGryK-32" target="9-cmXUhUi9A2ASZqGryK-0" parent="HgT05sSb6LrkyLWi5eaY-1">
          <mxGeometry relative="1" as="geometry" />
        </mxCell>
        <mxCell id="9-cmXUhUi9A2ASZqGryK-32" value="" style="html=1;dashed=0;whitespace=wrap;fillColor=#2875E2;strokeColor=#ffffff;points=[[0.005,0.63,0],[0.1,0.2,0],[0.9,0.2,0],[0.5,0,0],[0.995,0.63,0],[0.72,0.99,0],[0.5,1,0],[0.28,0.99,0]];shape=mxgraph.kubernetes.icon;prIcon=vol" vertex="1" parent="HgT05sSb6LrkyLWi5eaY-1">
          <mxGeometry x="155" y="620" width="42.5" height="38" as="geometry" />
        </mxCell>
        <mxCell id="9-cmXUhUi9A2ASZqGryK-34" value="APP1" style="text;html=1;resizable=0;autosize=1;align=center;verticalAlign=middle;points=[];fillColor=none;strokeColor=none;rounded=0;" vertex="1" parent="HgT05sSb6LrkyLWi5eaY-1">
          <mxGeometry x="92.5" y="598" width="50" height="20" as="geometry" />
        </mxCell>
        <mxCell id="9-cmXUhUi9A2ASZqGryK-35" value="PG1" style="text;html=1;resizable=0;autosize=1;align=center;verticalAlign=middle;points=[];fillColor=none;strokeColor=none;rounded=0;" vertex="1" parent="HgT05sSb6LrkyLWi5eaY-1">
          <mxGeometry x="142.5" y="598" width="40" height="20" as="geometry" />
        </mxCell>
        <mxCell id="9-cmXUhUi9A2ASZqGryK-36" value="Red1" style="text;html=1;resizable=0;autosize=1;align=center;verticalAlign=middle;points=[];fillColor=none;strokeColor=none;rounded=0;" vertex="1" parent="HgT05sSb6LrkyLWi5eaY-1">
          <mxGeometry x="177.5" y="598" width="50" height="20" as="geometry" />
        </mxCell>
        <mxCell id="9-cmXUhUi9A2ASZqGryK-39" value="" style="shape=mxgraph.cisco.storage.relational_database;html=1;pointerEvents=1;dashed=0;fillColor=#036897;strokeColor=#ffffff;strokeWidth=2;verticalLabelPosition=bottom;verticalAlign=top;align=center;outlineConnect=0;" vertex="1" parent="HgT05sSb6LrkyLWi5eaY-1">
          <mxGeometry x="340" y="637" width="40" height="27" as="geometry" />
        </mxCell>
        <mxCell id="9-cmXUhUi9A2ASZqGryK-40" value="Ceph volume&amp;nbsp; кластер" style="text;html=1;resizable=0;autosize=1;align=center;verticalAlign=middle;points=[];fillColor=none;strokeColor=none;rounded=0;" vertex="1" parent="HgT05sSb6LrkyLWi5eaY-1">
          <mxGeometry x="290" y="673" width="140" height="20" as="geometry" />
        </mxCell>
        <mxCell id="9-cmXUhUi9A2ASZqGryK-41" style="edgeStyle=none;rounded=0;orthogonalLoop=1;jettySize=auto;html=1;exitX=0.5;exitY=1;exitDx=0;exitDy=0;exitPerimeter=0;strokeWidth=2;" edge="1" parent="HgT05sSb6LrkyLWi5eaY-1">
          <mxGeometry relative="1" as="geometry">
            <mxPoint x="360" y="586" as="sourcePoint" />
            <mxPoint x="360" y="586" as="targetPoint" />
          </mxGeometry>
        </mxCell>
        <mxCell id="9-cmXUhUi9A2ASZqGryK-42" value="Persistant volume" style="text;html=1;resizable=0;autosize=1;align=center;verticalAlign=middle;points=[];fillColor=none;strokeColor=none;rounded=0;" vertex="1" parent="HgT05sSb6LrkyLWi5eaY-1">
          <mxGeometry x="122.5" y="658" width="110" height="20" as="geometry" />
        </mxCell>
        <mxCell id="9-cmXUhUi9A2ASZqGryK-43" style="edgeStyle=none;rounded=0;orthogonalLoop=1;jettySize=auto;html=1;exitX=0.75;exitY=0;exitDx=0;exitDy=0;strokeWidth=2;" edge="1" source="9-cmXUhUi9A2ASZqGryK-0" target="9-cmXUhUi9A2ASZqGryK-0" parent="HgT05sSb6LrkyLWi5eaY-1">
          <mxGeometry relative="1" as="geometry" />
        </mxCell>
        <mxCell id="9-cmXUhUi9A2ASZqGryK-44" value="API Server" style="text;html=1;resizable=0;autosize=1;align=center;verticalAlign=middle;points=[];fillColor=none;strokeColor=none;rounded=0;" vertex="1" parent="HgT05sSb6LrkyLWi5eaY-1">
          <mxGeometry x="192.5" y="334" width="70" height="20" as="geometry" />
        </mxCell>
        <mxCell id="9-cmXUhUi9A2ASZqGryK-45" value="Master" style="text;html=1;resizable=0;autosize=1;align=center;verticalAlign=middle;points=[];fillColor=none;strokeColor=none;rounded=0;" vertex="1" parent="HgT05sSb6LrkyLWi5eaY-1">
          <mxGeometry x="207.5" y="393" width="50" height="20" as="geometry" />
        </mxCell>
        <mxCell id="9-cmXUhUi9A2ASZqGryK-46" value="Worker nodes" style="text;html=1;resizable=0;autosize=1;align=center;verticalAlign=middle;points=[];fillColor=none;strokeColor=none;rounded=0;" vertex="1" parent="HgT05sSb6LrkyLWi5eaY-1">
          <mxGeometry x="130" y="543" width="90" height="20" as="geometry" />
        </mxCell>
        <mxCell id="9-cmXUhUi9A2ASZqGryK-47" value="Ingress nginx для APP1" style="text;html=1;resizable=0;autosize=1;align=center;verticalAlign=middle;points=[];fillColor=none;strokeColor=none;rounded=0;" vertex="1" parent="HgT05sSb6LrkyLWi5eaY-1">
          <mxGeometry x="97.5" y="435" width="150" height="20" as="geometry" />
        </mxCell>
        <mxCell id="9-cmXUhUi9A2ASZqGryK-48" value="Pods" style="text;html=1;resizable=0;autosize=1;align=center;verticalAlign=middle;points=[];fillColor=none;strokeColor=none;rounded=0;" vertex="1" parent="HgT05sSb6LrkyLWi5eaY-1">
          <mxGeometry x="57.5" y="569" width="40" height="20" as="geometry" />
        </mxCell>
        <mxCell id="9-cmXUhUi9A2ASZqGryK-49" value="ETCD 1" style="text;html=1;resizable=0;autosize=1;align=center;verticalAlign=middle;points=[];fillColor=none;strokeColor=none;rounded=0;" vertex="1" parent="HgT05sSb6LrkyLWi5eaY-1">
          <mxGeometry x="92.5" y="363" width="60" height="20" as="geometry" />
        </mxCell>
        <mxCell id="9-cmXUhUi9A2ASZqGryK-54" value="" style="edgeStyle=none;rounded=0;orthogonalLoop=1;jettySize=auto;html=1;endArrow=classicThin;endFill=1;strokeWidth=2;entryX=0.358;entryY=-0.014;entryDx=0;entryDy=0;entryPerimeter=0;" edge="1" source="9-cmXUhUi9A2ASZqGryK-57" target="9-cmXUhUi9A2ASZqGryK-3" parent="HgT05sSb6LrkyLWi5eaY-1">
          <mxGeometry relative="1" as="geometry" />
        </mxCell>
        <mxCell id="9-cmXUhUi9A2ASZqGryK-55" style="edgeStyle=none;rounded=0;orthogonalLoop=1;jettySize=auto;html=1;endArrow=classicThin;endFill=1;strokeWidth=2;" edge="1" source="9-cmXUhUi9A2ASZqGryK-57" target="9-cmXUhUi9A2ASZqGryK-8" parent="HgT05sSb6LrkyLWi5eaY-1">
          <mxGeometry relative="1" as="geometry" />
        </mxCell>
        <mxCell id="9-cmXUhUi9A2ASZqGryK-56" value="" style="edgeStyle=none;rounded=0;orthogonalLoop=1;jettySize=auto;html=1;endArrow=classicThin;endFill=1;strokeWidth=2;fontSize=12;" edge="1" source="9-cmXUhUi9A2ASZqGryK-57" target="9-cmXUhUi9A2ASZqGryK-61" parent="HgT05sSb6LrkyLWi5eaY-1">
          <mxGeometry relative="1" as="geometry" />
        </mxCell>
        <mxCell id="9-cmXUhUi9A2ASZqGryK-57" value="" style="points=[[0.015,0.015,0],[0.985,0.015,0],[0.985,0.985,0],[0.015,0.985,0],[0.25,0,0],[0.5,0,0],[0.75,0,0],[1,0.25,0],[1,0.5,0],[1,0.75,0],[0.75,1,0],[0.5,1,0],[0.25,1,0],[0,0.75,0],[0,0.5,0],[0,0.25,0]];verticalLabelPosition=bottom;html=1;verticalAlign=top;aspect=fixed;align=center;pointerEvents=1;shape=mxgraph.cisco19.rect;prIcon=l3_switch;fillColor=#FAFAFA;strokeColor=#005073;" vertex="1" parent="HgT05sSb6LrkyLWi5eaY-1">
          <mxGeometry x="460" y="188" width="35" height="35" as="geometry" />
        </mxCell>
        <mxCell id="9-cmXUhUi9A2ASZqGryK-58" style="edgeStyle=none;rounded=0;orthogonalLoop=1;jettySize=auto;html=1;exitX=0.5;exitY=1;exitDx=0;exitDy=0;exitPerimeter=0;entryX=0.711;entryY=0.014;entryDx=0;entryDy=0;entryPerimeter=0;endArrow=classicThin;endFill=1;strokeWidth=2;" edge="1" source="9-cmXUhUi9A2ASZqGryK-61" target="9-cmXUhUi9A2ASZqGryK-3" parent="HgT05sSb6LrkyLWi5eaY-1">
          <mxGeometry relative="1" as="geometry" />
        </mxCell>
        <mxCell id="9-cmXUhUi9A2ASZqGryK-59" style="edgeStyle=none;rounded=0;orthogonalLoop=1;jettySize=auto;html=1;endArrow=classicThin;endFill=1;strokeWidth=2;" edge="1" source="9-cmXUhUi9A2ASZqGryK-61" target="9-cmXUhUi9A2ASZqGryK-7" parent="HgT05sSb6LrkyLWi5eaY-1">
          <mxGeometry relative="1" as="geometry" />
        </mxCell>
        <mxCell id="9-cmXUhUi9A2ASZqGryK-60" style="edgeStyle=none;rounded=0;orthogonalLoop=1;jettySize=auto;html=1;exitX=0;exitY=0.5;exitDx=0;exitDy=0;exitPerimeter=0;endArrow=classicThin;endFill=1;strokeWidth=2;fontSize=12;" edge="1" source="9-cmXUhUi9A2ASZqGryK-61" parent="HgT05sSb6LrkyLWi5eaY-1">
          <mxGeometry relative="1" as="geometry">
            <mxPoint x="500" y="204" as="targetPoint" />
          </mxGeometry>
        </mxCell>
        <mxCell id="9-cmXUhUi9A2ASZqGryK-61" value="" style="points=[[0.015,0.015,0],[0.985,0.015,0],[0.985,0.985,0],[0.015,0.985,0],[0.25,0,0],[0.5,0,0],[0.75,0,0],[1,0.25,0],[1,0.5,0],[1,0.75,0],[0.75,1,0],[0.5,1,0],[0.25,1,0],[0,0.75,0],[0,0.5,0],[0,0.25,0]];verticalLabelPosition=bottom;html=1;verticalAlign=top;aspect=fixed;align=center;pointerEvents=1;shape=mxgraph.cisco19.rect;prIcon=l3_switch;fillColor=#FAFAFA;strokeColor=#005073;" vertex="1" parent="HgT05sSb6LrkyLWi5eaY-1">
          <mxGeometry x="539" y="187" width="36" height="36" as="geometry" />
        </mxCell>
        <mxCell id="9-cmXUhUi9A2ASZqGryK-106" value="&lt;div&gt;Ing nginx&lt;/div&gt;&lt;div&gt;&lt;br&gt;&lt;/div&gt;" style="text;html=1;resizable=0;autosize=1;align=center;verticalAlign=middle;points=[];fillColor=none;strokeColor=none;rounded=0;" vertex="1" parent="HgT05sSb6LrkyLWi5eaY-1">
          <mxGeometry x="215" y="595" width="60" height="30" as="geometry" />
        </mxCell>
        <mxCell id="9-cmXUhUi9A2ASZqGryK-107" value="&lt;b&gt;&lt;font style=&quot;font-size: 23px&quot;&gt;ЦОД 3&lt;br&gt;&lt;/font&gt;&lt;/b&gt;" style="text;html=1;resizable=0;autosize=1;align=center;verticalAlign=middle;points=[];fillColor=none;strokeColor=none;rounded=0;" vertex="1" parent="HgT05sSb6LrkyLWi5eaY-1">
          <mxGeometry x="62.5" y="60" width="90" height="20" as="geometry" />
        </mxCell>
        <mxCell id="rxF3gYfxKNiHw1ARP46n-0" value="" style="verticalLabelPosition=bottom;html=1;verticalAlign=top;align=center;strokeColor=none;fillColor=#00BEF2;shape=mxgraph.azure.virtual_machine;" vertex="1" parent="HgT05sSb6LrkyLWi5eaY-1">
          <mxGeometry x="520" y="413" width="50" height="40" as="geometry" />
        </mxCell>
        <mxCell id="rxF3gYfxKNiHw1ARP46n-1" value="" style="edgeStyle=none;rounded=0;orthogonalLoop=1;jettySize=auto;html=1;strokeWidth=2;" edge="1" source="rxF3gYfxKNiHw1ARP46n-2" target="rxF3gYfxKNiHw1ARP46n-3" parent="HgT05sSb6LrkyLWi5eaY-1">
          <mxGeometry relative="1" as="geometry" />
        </mxCell>
        <mxCell id="rxF3gYfxKNiHw1ARP46n-2" value="VM13" style="text;html=1;resizable=0;autosize=1;align=center;verticalAlign=middle;points=[];fillColor=none;strokeColor=none;rounded=0;" vertex="1" parent="HgT05sSb6LrkyLWi5eaY-1">
          <mxGeometry x="570" y="415" width="50" height="20" as="geometry" />
        </mxCell>
        <mxCell id="rxF3gYfxKNiHw1ARP46n-3" value="&lt;div style=&quot;font-size: 12px&quot;&gt;Ceph node3&lt;/div&gt;&lt;div style=&quot;font-size: 12px&quot;&gt;&lt;br style=&quot;font-size: 12px&quot;&gt;&lt;/div&gt;" style="text;html=1;resizable=0;autosize=1;align=center;verticalAlign=middle;points=[];fillColor=none;strokeColor=none;rounded=0;fontSize=12;fontStyle=1" vertex="1" parent="HgT05sSb6LrkyLWi5eaY-1">
          <mxGeometry x="680" y="410" width="80" height="30" as="geometry" />
        </mxCell>
        <mxCell id="rxF3gYfxKNiHw1ARP46n-4" value="" style="verticalLabelPosition=bottom;html=1;verticalAlign=top;align=center;strokeColor=none;fillColor=#00BEF2;shape=mxgraph.azure.virtual_machine;" vertex="1" parent="HgT05sSb6LrkyLWi5eaY-1">
          <mxGeometry x="520" y="457.5" width="50" height="40" as="geometry" />
        </mxCell>
        <mxCell id="rxF3gYfxKNiHw1ARP46n-5" value="" style="edgeStyle=none;rounded=0;orthogonalLoop=1;jettySize=auto;html=1;strokeWidth=2;" edge="1" source="rxF3gYfxKNiHw1ARP46n-6" parent="HgT05sSb6LrkyLWi5eaY-1">
          <mxGeometry relative="1" as="geometry">
            <mxPoint x="690" y="476.5" as="targetPoint" />
          </mxGeometry>
        </mxCell>
        <mxCell id="rxF3gYfxKNiHw1ARP46n-6" value="VM8" style="text;html=1;resizable=0;autosize=1;align=center;verticalAlign=middle;points=[];fillColor=none;strokeColor=none;rounded=0;" vertex="1" parent="HgT05sSb6LrkyLWi5eaY-1">
          <mxGeometry x="575" y="466.5" width="40" height="20" as="geometry" />
        </mxCell>
        <mxCell id="rxF3gYfxKNiHw1ARP46n-7" value="ETCD5" style="text;html=1;resizable=0;autosize=1;align=center;verticalAlign=middle;points=[];fillColor=none;strokeColor=none;rounded=0;fontSize=12;fontStyle=1" vertex="1" parent="HgT05sSb6LrkyLWi5eaY-1">
          <mxGeometry x="705" y="467.5" width="50" height="20" as="geometry" />
        </mxCell>
        <mxCell id="rxF3gYfxKNiHw1ARP46n-8" value="" style="verticalLabelPosition=bottom;html=1;verticalAlign=top;align=center;strokeColor=none;fillColor=#00BEF2;shape=mxgraph.azure.virtual_machine;" vertex="1" parent="HgT05sSb6LrkyLWi5eaY-1">
          <mxGeometry x="520" y="504.5" width="50" height="40" as="geometry" />
        </mxCell>
        <mxCell id="rxF3gYfxKNiHw1ARP46n-9" value="" style="edgeStyle=none;rounded=0;orthogonalLoop=1;jettySize=auto;html=1;strokeWidth=2;" edge="1" source="rxF3gYfxKNiHw1ARP46n-10" parent="HgT05sSb6LrkyLWi5eaY-1">
          <mxGeometry relative="1" as="geometry">
            <mxPoint x="690" y="516.5" as="targetPoint" />
          </mxGeometry>
        </mxCell>
        <mxCell id="rxF3gYfxKNiHw1ARP46n-10" value="VM9" style="text;html=1;resizable=0;autosize=1;align=center;verticalAlign=middle;points=[];fillColor=none;strokeColor=none;rounded=0;" vertex="1" parent="HgT05sSb6LrkyLWi5eaY-1">
          <mxGeometry x="575" y="506.5" width="40" height="20" as="geometry" />
        </mxCell>
        <mxCell id="rxF3gYfxKNiHw1ARP46n-11" value="ETCD6" style="text;html=1;resizable=0;autosize=1;align=center;verticalAlign=middle;points=[];fillColor=none;strokeColor=none;rounded=0;fontSize=12;fontStyle=1" vertex="1" parent="HgT05sSb6LrkyLWi5eaY-1">
          <mxGeometry x="705" y="507.5" width="50" height="20" as="geometry" />
        </mxCell>
        <mxCell id="rxF3gYfxKNiHw1ARP46n-12" value="" style="verticalLabelPosition=bottom;html=1;verticalAlign=top;align=center;strokeColor=none;fillColor=#00BEF2;shape=mxgraph.azure.virtual_machine;" vertex="1" parent="HgT05sSb6LrkyLWi5eaY-1">
          <mxGeometry x="520" y="549.5" width="50" height="40" as="geometry" />
        </mxCell>
        <mxCell id="rxF3gYfxKNiHw1ARP46n-13" value="" style="edgeStyle=none;rounded=0;orthogonalLoop=1;jettySize=auto;html=1;strokeWidth=2;" edge="1" source="rxF3gYfxKNiHw1ARP46n-14" target="rxF3gYfxKNiHw1ARP46n-15" parent="HgT05sSb6LrkyLWi5eaY-1">
          <mxGeometry relative="1" as="geometry" />
        </mxCell>
        <mxCell id="rxF3gYfxKNiHw1ARP46n-14" value="VM10" style="text;html=1;resizable=0;autosize=1;align=center;verticalAlign=middle;points=[];fillColor=none;strokeColor=none;rounded=0;" vertex="1" parent="HgT05sSb6LrkyLWi5eaY-1">
          <mxGeometry x="570" y="551.5" width="50" height="20" as="geometry" />
        </mxCell>
        <mxCell id="rxF3gYfxKNiHw1ARP46n-15" value="&lt;div&gt;Master node5&lt;/div&gt;&lt;div&gt;&lt;br&gt;&lt;/div&gt;" style="text;html=1;resizable=0;autosize=1;align=center;verticalAlign=middle;points=[];fillColor=none;strokeColor=none;rounded=0;fontSize=12;fontStyle=1" vertex="1" parent="HgT05sSb6LrkyLWi5eaY-1">
          <mxGeometry x="670" y="546.5" width="90" height="30" as="geometry" />
        </mxCell>
        <mxCell id="rxF3gYfxKNiHw1ARP46n-16" value="" style="verticalLabelPosition=bottom;html=1;verticalAlign=top;align=center;strokeColor=none;fillColor=#00BEF2;shape=mxgraph.azure.virtual_machine;" vertex="1" parent="HgT05sSb6LrkyLWi5eaY-1">
          <mxGeometry x="520" y="594.5" width="50" height="40" as="geometry" />
        </mxCell>
        <mxCell id="rxF3gYfxKNiHw1ARP46n-17" value="" style="edgeStyle=none;rounded=0;orthogonalLoop=1;jettySize=auto;html=1;strokeWidth=2;" edge="1" source="rxF3gYfxKNiHw1ARP46n-18" target="rxF3gYfxKNiHw1ARP46n-19" parent="HgT05sSb6LrkyLWi5eaY-1">
          <mxGeometry relative="1" as="geometry" />
        </mxCell>
        <mxCell id="rxF3gYfxKNiHw1ARP46n-18" value="VM11" style="text;html=1;resizable=0;autosize=1;align=center;verticalAlign=middle;points=[];fillColor=none;strokeColor=none;rounded=0;" vertex="1" parent="HgT05sSb6LrkyLWi5eaY-1">
          <mxGeometry x="575" y="591.5" width="40" height="20" as="geometry" />
        </mxCell>
        <mxCell id="rxF3gYfxKNiHw1ARP46n-19" value="&lt;div&gt;Master node6&lt;/div&gt;&lt;div&gt;&lt;br&gt;&lt;/div&gt;" style="text;html=1;resizable=0;autosize=1;align=center;verticalAlign=middle;points=[];fillColor=none;strokeColor=none;rounded=0;fontSize=12;fontStyle=1" vertex="1" parent="HgT05sSb6LrkyLWi5eaY-1">
          <mxGeometry x="670" y="586.5" width="90" height="30" as="geometry" />
        </mxCell>
        <mxCell id="rxF3gYfxKNiHw1ARP46n-20" value="" style="verticalLabelPosition=bottom;html=1;verticalAlign=top;align=center;strokeColor=none;fillColor=#00BEF2;shape=mxgraph.azure.virtual_machine;" vertex="1" parent="HgT05sSb6LrkyLWi5eaY-1">
          <mxGeometry x="520" y="640.5" width="50" height="40" as="geometry" />
        </mxCell>
        <mxCell id="rxF3gYfxKNiHw1ARP46n-21" value="" style="edgeStyle=none;rounded=0;orthogonalLoop=1;jettySize=auto;html=1;strokeWidth=2;" edge="1" source="rxF3gYfxKNiHw1ARP46n-22" parent="HgT05sSb6LrkyLWi5eaY-1">
          <mxGeometry relative="1" as="geometry">
            <mxPoint x="665" y="650.5" as="targetPoint" />
          </mxGeometry>
        </mxCell>
        <mxCell id="rxF3gYfxKNiHw1ARP46n-22" value="VM12" style="text;html=1;resizable=0;autosize=1;align=center;verticalAlign=middle;points=[];fillColor=none;strokeColor=none;rounded=0;" vertex="1" parent="HgT05sSb6LrkyLWi5eaY-1">
          <mxGeometry x="570" y="640.5" width="50" height="20" as="geometry" />
        </mxCell>
        <mxCell id="RPw8sOYJjOepfaIdZrGR-0" value="Worker Node3" style="text;html=1;resizable=0;autosize=1;align=center;verticalAlign=middle;points=[];fillColor=none;strokeColor=none;rounded=0;fontSize=12;fontStyle=1" vertex="1" parent="HgT05sSb6LrkyLWi5eaY-1">
          <mxGeometry x="670" y="640.5" width="100" height="20" as="geometry" />
        </mxCell>
      </root>
    </mxGraphModel>
  </diagram>
</mxfile>
